<?xml version="1.0" standalone="no"?>
<!DOCTYPE svg PUBLIC "-//W3C//DTD SVG 1.1//EN" "http://www.w3.org/Graphics/SVG/1.1/DTD/svg11.dtd">
<svg xmlns="http://www.w3.org/2000/svg">
<metadata>Copyright (C) 2015 by original authors @ fontello.com</metadata>
<defs>
<font id="fontello" horiz-adv-x="1000" >
<font-face font-family="fontello" font-weight="400" font-stretch="normal" units-per-em="1000" ascent="850" descent="-150" />
<missing-glyph horiz-adv-x="1000" />
<glyph glyph-name="globe-outline" unicode="&#xe800;" d="m469 819q194 0 331-137t138-332-138-331-331-138-331 138-138 331 138 332 331 137z m0-312q0-44-6-76t-13-47-15-23-12-9l-7-2 0 157q0 42 21 73t58 30q34 0 54 26t24 63q-49 15-104 15-105 0-191-53t-133-143q20-19 58-58t57-58q0 6 1 15t15 23 37 14l0-104 103-105 0-103q49 0 70-1t46-6 32-16 9-30q32 16 44 23t28 20 19 22 9 33 5 45l0 66 51 52-51 52 0-104-53 0q0-21-16-37t-36-16-37 16-15 37 15 37 37 15l0 157q0 21-15 36t-37 15-37-15-15-36z m156-105q0 20 15 36t38 16q21 0 36-15l52-52q15-15 15-37t-15-37l-37-36q-1-113-22-151t-111-83q-10-5-22-5-21 0-36 14t-17 33q-13 4-105 4-21 0-36 16t-15 37l0 82-241 241q-20-57-20-115 0-151 107-258t258-107 258 107 107 258q0 109-58 198t-153 132q-10-55-44-87 46-31 46-86l0-105z" horiz-adv-x="938" />
<glyph glyph-name="globe" unicode="&#xe801;" d="m469 819q194 0 331-137t138-332-138-331-331-138-331 138-138 331 138 332 331 137z m104-105l0 39q-53 14-104 14-94 0-176-39t-140-108l-28-35-19-30 154-153q0 6 1 15t15 23 37 14l0-104 103-105 0-103q49 0 70-1t46-6 32-16 9-30q32 16 44 23t28 20 19 22 9 33 5 45l0 66 51 52-51 52 0-104-53 0q0-21-16-37t-36-16-37 16-15 37 15 37 37 15l0 157q0 21-15 36t-37 15-37-15-15-36q0-44-6-76t-13-47-15-23-12-9l-7-2 0 157q0 42 21 73t58 30 58 31 20 73z" horiz-adv-x="938" />
<glyph glyph-name="globe-alt-outline" unicode="&#xe802;" d="m346 663q-86 0-147-61t-60-148 60-147 147-60 148 60 61 147-61 148-148 61z m0 104q129 0 221-92t92-221-92-220-221-92-220 92-92 220 92 221 220 92z m313-833q21 0 37-15t15-37-15-37-37-16l-520 0q-21 0-37 16t-16 37 16 37 37 15l207 0 0 51q-193 0-331 138-15 15-15 37t15 37 37 15 37-15q106-106 257-106 153 0 259 106t106 257q0 153-106 259l-37 36 107 107q15 15 37 15t37-15 14-37-15-37l-35-35q102-128 102-293 0-193-137-331-97-96-227-125l0-64 208 0z" horiz-adv-x="815" />
<glyph glyph-name="globe-alt" unicode="&#xe803;" d="m346-66l0 51q-193 0-331 138-15 15-15 37t15 37 37 15 37-15q106-106 257-106 153 0 259 106t106 257q0 153-106 259l-37 36 107 107q15 15 37 15t37-15 14-37-15-36l-35-36q102-128 102-293 0-193-137-331-97-96-227-125l0-64 208 0q21 0 37-15t15-37-15-37-37-16l-520 0q-21 0-37 16t-16 37 16 37 37 15l207 0z m-312 520q0 129 92 221t220 92 221-92 92-221-92-220-221-92-220 92-92 220z" horiz-adv-x="815" />
<glyph glyph-name="globe-1" unicode="&#xe804;" d="m406 755c227 0 405-180 405-404 0-226-178-406-405-406-225 0-406 180-406 406 0 224 181 404 406 404z m23-734c65 0 100 113 116 169-39-4-77-6-116-7l0-162z m-129 82c19-45 48-82 81-82l0 162c-38 1-77 3-115 7 8-32 19-61 34-87z m-222 202c16-19 57-44 132-57-5 31-7 66-7 100 0 25 1 45 3 68-57 12-91 20-117 32-9-30-14-64-14-97 0-16 0-32 3-46z m170 43c0-37 2-75 7-109 43-8 84-11 126-13l0 177c-45 1-90 3-132 8 0-22-1-41-1-63z m131 331c-56-23-104-110-124-225 41-4 84-6 126-8l0 233-2 0z m82-18c-11 8-23 18-32 18l0-233c44 2 85 4 127 8-16 90-52 169-95 207z m-32-435c44 2 85 5 126 12 6 33 8 72 8 110 0 22 0 41-2 62-42-4-86-6-132-7l0-177z m176 190c3-23 3-43 3-68 0-34-3-70-7-102 130 22 135 52 135 105 0 32-5 65-15 95-23-10-66-25-116-30z m99 74c-35 78-101 140-179 168 38-49 61-118 74-199 67 12 95 24 105 31z m-531 93c-29-27-50-59-65-92 11-10 30-11 103-31 14 80 38 146 75 196-42-20-80-37-113-73z m0-465c30-33 67-55 106-72-29 40-48 92-60 152-50 11-95 25-125 41 19-46 42-88 79-121z m466 0c35 32 59 72 75 116-33-15-75-28-121-38-14-60-32-108-62-150 39 17 78 39 108 72z" horiz-adv-x="811" />
<glyph glyph-name="globe-2" unicode="&#xe805;" d="m0 350q0 95 37 182t100 149 150 100 182 37 182-37 149-100 100-149 37-182q0-95-37-182t-100-150-149-100-182-37-182 37-150 100-100 150-37 182z m88 0q0-76 29-146t79-119 118-82 143-33q-7 8-11 33-1 7-2 25t-4 27q-1 7-17 55-5 15-11 19t-23 5q-8 1-24 1t-28 1-26 2-24 6-21 10-17 18-8 26q-11 62 38 103 25 21 52 28t64 6q24 0 42-14 22-18 44-19 5 0 22-2t28-2 26 1 23 7v7q0 2 1 7t1 10 0 7-6 6q-4 2-20 1t-20 4q-8 8 3 16t30 16 21 10q14 14-6 18-19 4-38-4-4-2-7-4-8-8-17-29-3-6-9-16t-9-15q-2 2-6 6t-5 6q-3 3-11 20-1 2-3 6t-2 6-3 7-4 4-5 3-7 0q-1-11 7-23t7-20q1-13-5-12t-15 13q-2 3-5 9t-5 9-6 6-9 4-12 0q-13-2-20-7-2-2-7-8t-10-8q-3-17-27-16-1 0-6 0t-8 1-8 1-7 2-4 4q-3 5 2 21t8 21 11 7 19 1 13-1q2 9-4 17t-8 10q-1 5-1 8t3 4 7 1h7t6 0q18 4 30 16 0 0 4 3t4 3l5 4t6 2 5 2 6-1q2-1 6-5t6-4q4-1 16 3 13 4 19 10t13 18q13 20 4 34-6 9-15 6t-14-12q-2-3-3-11t-4-12-6-8q-5-4-15-4t-17 2q-4 2-6 6t-2 7 0 10 1 9q0 4 1 7t2 6 4 6 4 4 5 5 5 5q8 7 16 12t20 4 17-1 20-4 18-4q17-3 36 18 3 3 9 8t8 9 2 11q0 7-1 24t-2 28 2 26 7 23q-62 23-128 23-47 0-95-12l0-2q0-19 2-21 4-6 16-8t22-2 18-7 5-18q-4-14-19-30t-32-29q-20-15-49-19-1 0-6 0t-7-1-8 0-9 0-8 1-7 1-6 3-4 6-1 7q1 8 9 16t17 10 21 7 17 5q1 12-4 17t-12 1-16-5-18-6-14 1q-3 8 5 13t9 7q5 11-8 19-29-16-53-35 11-2 17-6t7-15q0-4-2-8t-5-6-6-6-6-5q-14-14-21-25-3-4-7-21t-11-21q-12-7-16-1t-5 19v8t-1 3-4 2q-6 2-18-1-68-97-68-216z m493-72q-1-31 20-54 27-27 52-32 11-2 29 2t25 3q0-17-19-53-22-37-33-48-2-3-7-7t-7-6-5-7-4-6-1-8 2-9q1-2 4-9t3-8-1-9q-1-4-4-6t-6-4-7-3q-4-3-11-9t-13-9-12-8q116 38 190 138t74 224q0 12-2 36-4-5-5-12-2-17-2-21 0-3 1-14t0-18-4-12q-3-3-6-4t-8 2-7 6-7 7-7 5q-8 6-14 9t-13 6-15 2-15-4q-18-9-39-9-4 0-11 0t-13 1-11-1-10-4q1-11 8-20t17-10q5 0 7 2t5 4 5 5q7 5 23 4 1-26 0-31t-7-12-6-13q0-2-1-9t-2-11-4-7-7-9q-7-6-17-9t-17 3q-3 2-8 9t-9 11q-3 2-5 4t-5 5-4 5-4 5-4 7q-6 8-21 18t-19 14q-4-2-5-4t-1-8z" horiz-adv-x="937.5" />
<glyph glyph-name="globe-inv" unicode="&#xe806;" d="m0 350q0 95 37 182t100 149 150 100 182 37 182-37 149-100 100-149 37-182q0-95-37-182t-100-150-149-100-182-37-182 37-150 100-100 150-37 182z m156 216q14 3 18 1 2-2 3-3t2-2 0-3v-5q1-29 21-18 7 4 11 21t6 21q5 9 22 25 2 1 6 5t6 6 5 6 2 8q0 10-7 15t-17 6q-44-35-78-83z m84-368q3-18 12-30t19-19 28-10 29-3 32-1 29-1q17-1 23-6t11-19q2-5 6-17t7-20 4-17q2-9 4-28t2-25q4-24 11-32 2 0 6-1t6 0q59 0 120 20 7 4 19 13t14 12q2 1 7 2t6 5 4 6q2 3 2 7t-2 6-2 6-4 7q-1 4-2 9t1 7 4 7 5 6 7 6 7 7q13 13 33 49 20 36 19 53-7 0-25-4t-29-1q-24 4-51 32-22 23-21 54 1 6 1 8t5 4q5-5 20-15t21-18q2-2 5-7t4-7 5-5 7-7 9-10 9-10q7-5 17-2t17 9q4 3 6 8t4 8 2 11 2 9q1 5 6 12t6 13 0 31q-16 0-23-4-2-1-7-7t-10-4q-11 0-17 9t-7 20q4 3 10 4t10 1 13 0 11-1q18 0 39 9 8 4 15 5t15-2 13-6 14-10q3-2 7-5t7-7 7-5 7-2 6 4q4 4 5 12t0 18-1 14l2 20q1 3 5 12-11 111-79 198t-171 124q-7-11-9-28t0-43 2-30q0-7-2-12t-8-8-9-8q-18-21-36-18-5 1-18 4t-20 4-17 1-19-4-17-12q-1-2-6-6t-6-6-4-6-4-7-1-8q0-2-1-9t0-10 2-7 6-7q6-3 16-2t16 4q6 4 9 18t4 14q5 10 14 12t15-6q9-13-4-35-7-12-13-17t-19-10q-1-1-4-2t-6-2-6 0q-2 1-6 5t-6 5q-12 3-30-14-14-13-30-15-2 0-6 0h-7t-7-1-3-4 1-8q1-3 7-11t5-16q-3 0-10 1t-13 0-11-2-9-6q-3-6-8-22t-2-20q4-8 33-8 24-2 27 15 4 2 9 8t8 8q7 6 20 7 7 1 12 1t9-5 6-5 5-9 5-9q10-15 17-13 4 1 3 12 0 7-7 19t-7 23q5 0 8 0t6-4 4-6 4-8 3-7q5-15 10-21 0 0 5-5t6-7q1 2 8 14t10 18q8 20 18 28 10 10 35 10 21 0 21-10-1-4-6-9-3-3-21-11t-30-15-3-17q6-5 20-4t20-1q4-2 6-6t1-7-1-9-2-8v-6q-11-7-28-8t-43 1-28 3q-21 1-44 19-11 8-19 11t-24 3q-71 2-115-34-50-42-39-104z m40 447q7-3 15-1t18 6 16 5 12-1 4-17q-4-1-17-5t-21-7-17-11-9-16q0-4 1-7t4-5 6-3 7-2 8 0 9 0 8 0 7 1 6 1q29 3 49 18 44 33 51 59 3 12-5 18t-18 7-22 2-16 8q-2 2-2 21 0 2 0 2-65-21-87-34 12-9 8-19-1-1-9-7t-6-13z" horiz-adv-x="937.5" />
<glyph glyph-name="globe-3" unicode="&#xe807;" d="m0 350q0 207 147 354t353 146 354-146 146-354-146-354-354-146-353 146-147 354z m118-39q5-55 27-107 29-73 84-127t125-84q1 17 5 67t8 77q-4 16-22 51t-21 57q0 19 1 29t1 16q-4 1-10 7l-7 8q-8 8-12 10-12 4-34 12t-33 11-29 12-30 18-26 22-24 28q-8-52-3-107z m142 340q17 2 35 0 18-8 38-31t34-32q4-4 12-4 4-9 23-12t24-7q23-14 37-33-24-34-37-39 0-2 2-2 4-8-4-12-6-2-24-6t-23-11-10-24q0-4-4-8 4-27 2-49t-13-23q-6 0-12 2-8 2-19 8t-24 17q0-6 4-15t4-12l6 0q7 2 11-3t0-9l-2-6-2-2 8-4q10-7 19-7t22 1q20 2 31 2t27-8 22-15 22-18 23-17q4-2 22-13t26-19 9-21q-2-70-26-96-7-7-22-18t-23-21-15-23q-6-12-6-27-6-12-16-34t-15-29q99-19 194 12t161 105q51 55 76 121t28 137l-37-21q-24 2-24-8l16-6q4-2 4-4 4-10-4-21-6-12-29-36-2-25-4-33-4-10-10-21l0-14q-2-8-9-22t-9-25q-4-27-23-51-29-27-49-23-8 2-14 10-4 13-13 37t-12 29q-4 10-4 20t2 23 2 20q0 9-7 24t-7 21q-2 5 4 19l-9 3q-8 3-32 3l-12 0q-44 0-56 55-6 33 14 64 1 4 1 9l0 7q10 2 18 19 8 0 36 4t42 5 35-5q8-6 16-10 14-9 23-13l32 21q-10 16-20 26-27 31-57 0l-68 5q-16-9-39-11-2 11-6 19-6 12-7 19t3 11l8 7q8 6 11 17t5 24 4 20q5 14 17 31 6 14 23 22t35 13 39 8 38 4q-37 31-76 53-12 0-32 5t-29 4q-21 2-49-13-21-16-50-16-37 0-75 13t-64 28q-64-21-117-64z" horiz-adv-x="1000" />
<glyph glyph-name="globe-alt-1" unicode="&#xe808;" d="m0 350q0 207 147 354t353 146 354-146 146-354-146-354-354-146-353 146-147 354z m125 57q22-28 47-43t65-30 58-21q4-6 15-15t14-10q0-6-2-16-2-22 1-39t8-27 16-29 16-28q2-6 0-14-2-15-8-64t-7-76q39-24 76-26 4 8 8 18 4 8 8 20t13 29q0 13 5 25t11 18q6 7 13 13 20 16 36 32t17 25q8 31 10 68 0 12-9 20t-20 15q-18 8-46 35t-42 32q-18 8-34 9t-31-1q-13-4-33-2-4 6-8 8-8 3-2 9 4 8-3 11t-14 1q-8 23-8 37 14-12 23-17t18-8 14-2q9 4 11 19t-2 43q4 4 4 8 4 18 11 23t7 6q4 0 4 2 4 2 15 4 6 2 10 3t10 3q8 4 4 12l-2 0q17 10 35 41-12 19-35 31-8 10-20 6-5 0-14 6t-13 8-12 3q-13 8-26 21t-21 26q-3 10-17 14-10 2-20 2l-11 0q-55-43-93-104t-50-134z m256 297q25-14 60-26t69-12q23 0 51 16 27 20 76 10 8-2 13-2-35 16-74 23t-80 8q-60 0-115-17z m164-383q4-26 19-39 12-12 26-14t25 0 28-2q7-4 9-4-6-13-4-21 0-4 6-19t6-24q-4-49 0-61 6-12 14-33t14-33q3-8 13-10 20-4 47 23 20 24 23 51 2 10 8 22t10 25q2 6 0 14 14 21 14 39l0 14q2 3 9 10t12 11q6 23 2 31 0 2-4 4l-17 6q11 25 35 20l31 9 0 6q0 90-36 163t-99 126q-101-11-127-45-11-19-15-33-2-8-5-20t-4-17-5-12-12-17q-4-4-4-11t6-19q6-9 6-17 29 0 37 10l71-6q25 31 56 0 8-8 18-26l-29-19q-20 10-34 15t-28 8-22 1-31-4-36-3l-4-7t-6-7-7-3q-2-4-2-10l0-8q-22-27-14-64z" horiz-adv-x="1000" />
<glyph glyph-name="globe-4" unicode="&#xe809;" d="m0 366q0 201 142 342t342 142 343-142 142-342-142-343-343-142-342 142-142 343z m63-16q7-166 125-283 52 37 109 60-43 106-47 223l-187 0z m0 31l187 0q4 104 37 196-62 25-117 68-102-113-107-264z m128 287q51-39 108-62 43 101 117 176-131-22-225-114z m20-623q88-76 205-95-64 64-105 148-53-19-100-53z m70 305q4-111 45-213 69 22 143 26l0 187-188 0z m0 31l188 0 0 157q-78 3-153 29-31-88-35-186z m47 215q69-23 141-27l0 218-2 0q-90-76-139-191z m12-486q49-100 127-166l2 0 0 187q-69-4-129-21z m160-166l2 0q78 66 127 166-61 17-129 21l0-187z m0 219q74-4 143-26 41 102 45 213l-188 0 0-187z m0 218l188 0q-4 98-36 186-74-26-152-29l0-157z m0 188q72 4 141 27-49 115-139 191l-2 0 0-218z m53-619q117 19 205 95-47 34-100 53-41-84-105-148z m0 832q74-75 117-176 57 23 107 62-93 92-224 114z m119-655q57-23 109-60 117 117 125 283l-187 0q-4-117-47-223z m10 450q33-92 37-196l187 0q-6 151-107 264-55-43-117-68z" horiz-adv-x="969" />
<glyph glyph-name="sound" unicode="&#xe80a;" d="m0 163q0 39 27 66l98 98 0 429q0 30 16 53t43 33q15 8 35 8 39 0 66-27l688-688q45-45 19-101-10-28-33-43t-53-16l-429 0-98-98q-27-27-66-27t-67 27l-219 219q-27 27-27 67z m63 0q0-14 9-22l219-219q8-10 22-10t21 10l98 98 2 0-264 264 0-2-98-98q-9-8-9-21z m123 150l277-277q12 2 14 2l377 0-666 666 0-377q0-2-2-14z m2 433l708-708 10 0q22 0 30 19t-8 33l-688 688q-8 9-21 9-6 0-12-1-19-8-19-30l0-10z m343 73q0 13 9 22t23 9q181 0 309-128t128-309q0-14-9-23t-22-9-23 9-9 23q0 154-110 264t-264 110q-14 0-23 9t-9 23z m16-110q0 16 16 16 128 0 220-92t92-220q0-16-16-16t-15 16q0 117-82 199t-199 82q-16 0-16 15z" horiz-adv-x="1001" />
<glyph glyph-name="volume-off" unicode="&#xe80b;" d="m460 727l0-754-234 234-226 0 0 286 226 0z" horiz-adv-x="460" />
<glyph glyph-name="volume-down" unicode="&#xe80c;" d="m460 727l0-754-234 234-226 0 0 286 226 0z m133-602l-65 63c45 45 68 108 68 168 0 59-21 115-63 159l61 61c61-63 97-144 97-228 0-76-30-156-98-223z" horiz-adv-x="691" />
<glyph glyph-name="volume-up" unicode="&#xe80d;" d="m460 727l0-754-234 234-226 0 0 286 226 0z m133-602l-65 63c45 45 68 108 68 168 0 59-21 115-63 159l61 61c61-63 97-144 97-228 0-76-30-156-98-223z m145-131l-70 69c77 77 116 182 116 288 0 105-39 211-116 289l66 66c97-98 151-229 151-361 0-124-46-249-147-350z" horiz-adv-x="885" />
<glyph glyph-name="headphones" unicode="&#xe80e;" d="m856 294q22 0 39-16t16-40l0-223q0-24-16-40t-39-16l-168 0 0 447q0 92-65 157t-158 66-158-66-66-157l0-447-167 0q-24 0-40 16t-16 40l0 223q0 23 16 39t40 17l56 0 0 112q0 138 98 236t236 99 237-99 98-236l0-112 57 0z" horiz-adv-x="928" />
<glyph glyph-name="sound-1" unicode="&#xe80f;" d="m176 588q42 42 149-5t217-157 157-217 5-149q-28-28-92-67t-156-78-194-29-176 84-84 176 29 194 78 156 67 92z m464-480q8 10-3 49t-49 101-96 118q-56 58-118 96t-101 49-49 3q-8-10 3-49t49-101 94-120q58-56 120-94t101-49 49-3z m6 394q-18 0-34 16-16 14-16 35t16 35l94 96q36 32 72 0 32-36 0-72l-96-94q-16-16-36-16z m-180 124q-18 10-23 30t5 38l54 96q26 44 68 20 18-10 23-30t-5-38l-54-96q-14-26-42-26-14 0-26 6z m438-150q10-18 4-38t-24-30l-96-54q-16-8-24-8-28 0-44 26-10 18-4 38t24 30l96 54q18 10 38 5t30-23z" horiz-adv-x="910" />
<glyph glyph-name="volume-up-1" unicode="&#xe810;" d="m429 654v-608q0-14-11-25t-25-10-25 10l-186 186h-146q-15 0-25 11t-11 25v214q0 15 11 25t25 11h146l186 186q10 10 25 10t25-10 11-25z m214-304q0-42-24-79t-63-52q-5-3-14-3-14 0-25 10t-10 26q0 12 6 20t17 14 19 12 16 20 6 32-6 32-16 20-19 12-17 14-6 20q0 15 10 26t25 10q9 0 14-3 39-15 63-52t24-79z m143 0q0-85-48-158t-125-105q-8-3-14-3-15 0-26 11t-10 25q0 22 21 33 32 16 43 25 41 30 64 75t23 97-23 97-64 75q-11 9-43 25-21 11-21 33 0 14 10 25t25 11q7 0 15-3 78-33 125-105t48-158z m143 0q0-128-71-236t-189-158q-7-3-14-3-15 0-26 11t-10 25q0 20 22 33 4 2 12 6t13 6q25 14 45 28 69 51 108 127t38 161-38 161-108 127q-20 14-45 28-4 3-13 6t-12 6q-22 13-22 33 0 14 10 25t26 11q7 0 14-3 118-51 189-158t71-236z" horiz-adv-x="928.6" />
<glyph glyph-name="volume-down-1" unicode="&#xe811;" d="m429 654v-608q0-14-11-25t-25-10-25 10l-186 186h-146q-15 0-25 11t-11 25v214q0 15 11 25t25 11h146l186 186q10 10 25 10t25-10 11-25z m214-304q0-42-24-79t-63-52q-5-3-14-3-14 0-25 10t-10 26q0 12 6 20t17 14 19 12 16 20 6 32-6 32-16 20-19 12-17 14-6 20q0 15 10 26t25 10q9 0 14-3 39-15 63-52t24-79z" horiz-adv-x="642.9" />
<glyph glyph-name="volume-off-1" unicode="&#xe812;" d="m429 654v-608q0-14-11-25t-25-10-25 10l-186 186h-146q-15 0-25 11t-11 25v214q0 15 11 25t25 11h146l186 186q10 10 25 10t25-10 11-25z" horiz-adv-x="428.6" />
<glyph glyph-name="doc" unicode="&#xe813;" d="m819 638q16-16 27-42t11-50v-642q0-23-15-38t-38-16h-750q-23 0-38 16t-16 38v892q0 23 16 38t38 16h500q22 0 49-11t42-27z m-248 136v-210h210q-5 16-12 23l-175 175q-6 7-23 12z m215-853v572h-232q-23 0-38 15t-16 38v233h-429v-858h715z" horiz-adv-x="857.1" />
<glyph glyph-name="docs" unicode="&#xe814;" d="m946 636q23 0 38-16t16-38v-678q0-23-16-38t-38-16h-535q-23 0-38 16t-16 38v160h-303q-23 0-38 16t-16 38v375q0 22 11 49t27 42l228 228q15 16 42 27t49 11h232q23 0 38-16t16-38v-183q38 23 71 23h232z m-303-119l-167-167h167v167z m-357 214l-167-167h167v167z m109-361l176 176v233h-214v-233q0-22-15-38t-38-15h-233v-357h286v143q0 22 11 49t27 42z m534-449v643h-215v-232q0-22-15-38t-38-15h-232v-358h500z" horiz-adv-x="1000" />
<glyph glyph-name="doc-text" unicode="&#xe815;" d="m819 638q16-16 27-42t11-50v-642q0-23-15-38t-38-16h-750q-23 0-38 16t-16 38v892q0 23 16 38t38 16h500q22 0 49-11t42-27z m-248 136v-210h210q-5 16-12 23l-175 175q-6 7-23 12z m215-853v572h-232q-23 0-38 15t-16 38v233h-429v-858h715z m-572 483q0 7 5 12t13 5h393q8 0 13-5t5-12v-36q0-8-5-13t-13-5h-393q-8 0-13 5t-5 13v36z m411-125q8 0 13-5t5-13v-36q0-8-5-13t-13-5h-393q-8 0-13 5t-5 13v36q0 8 5 13t13 5h393z m0-143q8 0 13-5t5-13v-36q0-8-5-13t-13-5h-393q-8 0-13 5t-5 13v36q0 8 5 13t13 5h393z" horiz-adv-x="857.1" />
<glyph glyph-name="doc-inv" unicode="&#xe816;" d="m571 564v264q13-8 21-16l227-228q8-7 16-20h-264z m-71-18q0-22 16-38t38-15h303v-589q0-23-15-38t-38-16h-750q-23 0-38 16t-16 38v892q0 23 16 38t38 16h446v-304z" horiz-adv-x="857.1" />
<glyph glyph-name="doc-text-inv" unicode="&#xe817;" d="m819 584q8-7 16-20h-264v264q13-8 21-16z m-265-91h303v-589q0-23-15-38t-38-16h-750q-23 0-38 16t-16 38v892q0 23 16 38t38 16h446v-304q0-22 16-38t38-15z m89-411v36q0 8-5 13t-13 5h-393q-8 0-13-5t-5-13v-36q0-8 5-13t13-5h393q8 0 13 5t5 13z m0 143v36q0 7-5 12t-13 5h-393q-8 0-13-5t-5-12v-36q0-8 5-13t13-5h393q8 0 13 5t5 13z m0 143v35q0 8-5 13t-13 5h-393q-8 0-13-5t-5-13v-35q0-8 5-13t13-5h393q8 0 13 5t5 13z" horiz-adv-x="857.1" />
<glyph glyph-name="file-pdf" unicode="&#xe818;" d="m819 638q16-16 27-42t11-50v-642q0-23-15-38t-38-16h-750q-23 0-38 16t-16 38v892q0 23 16 38t38 16h500q22 0 49-11t42-27z m-248 136v-210h210q-5 16-12 23l-175 175q-6 7-23 12z m215-853v572h-232q-23 0-38 15t-16 38v233h-429v-858h715z m-287 331q18-14 47-31 33 4 65 4 82 0 99-27 9-13 1-29 0-1-1-1l-1-2v0q-3-21-39-21-27 0-65 11t-72 29q-123-13-219-46-85-146-135-146-8 0-15 4l-14 6q0 1-3 3-6 6-4 20 5 23 32 51t73 54q8 5 13-3 1-1 1-2 29 47 60 110 38 76 58 146-13 46-17 89t4 71q6 22 23 22h12q13 0 20-8 10-12 5-38-1-3-2-4 0-2 0-5v-17q-1-68-8-107 31-91 82-133z m-322-229q30 13 77 88-29-22-49-47t-28-41z m223 513q-9-23-2-73 1 4 4 24 0 2 4 24 1 3 3 5-1 0-1 1t0 1-1 1q0 12-7 20 0-1 0-1v-2z m-70-368q76 30 159 45-1 0-7 5t-9 8q-43 37-71 98-15-48-47-110-16-31-25-46z m361 8q-14 14-78 14 42-16 69-16 8 0 10 1 0 0-1 1z" horiz-adv-x="857.1" />
<glyph glyph-name="file-image" unicode="&#xe819;" d="m819 638q16-16 27-42t11-50v-642q0-23-15-38t-38-16h-750q-23 0-38 16t-16 38v892q0 23 16 38t38 16h500q22 0 49-11t42-27z m-248 136v-210h210q-5 16-12 23l-175 175q-6 7-23 12z m215-853v572h-232q-23 0-38 15t-16 38v233h-429v-858h715z m-72 250v-178h-571v107l107 107 71-71 215 214z m-464 108q-45 0-76 31t-31 76 31 76 76 31 76-31 31-76-31-76-76-31z" horiz-adv-x="857.1" />
<glyph glyph-name="file-audio" unicode="&#xe81a;" d="m819 638q16-16 27-42t11-50v-642q0-23-15-38t-38-16h-750q-23 0-38 16t-16 38v892q0 23 16 38t38 16h500q22 0 49-11t42-27z m-248 136v-210h210q-5 16-12 23l-175 175q-6 7-23 12z m215-853v572h-232q-23 0-38 15t-16 38v233h-429v-858h715z m-440 455q11-5 11-17v-304q0-12-11-16-4-1-7-1-6 0-13 5l-92 93h-73q-8 0-13 5t-5 13v107q0 8 5 13t13 5h73l92 93q9 8 20 4z m233-385q17 0 28 14 72 88 72 202t-72 203q-9 11-24 13t-27-8q-11-9-13-24t8-26q56-69 56-158t-56-157q-9-12-8-27t13-24q10-8 23-8z m-118 83q15 0 26 11 49 52 49 122t-49 122q-10 11-25 12t-26-10-11-25 10-26q29-32 29-73t-29-73q-10-11-10-26t11-25q12-9 25-9z" horiz-adv-x="857.1" />
<glyph glyph-name="file-video" unicode="&#xe81b;" d="m819 638q16-16 27-42t11-50v-642q0-23-15-38t-38-16h-750q-23 0-38 16t-16 38v892q0 23 16 38t38 16h500q22 0 49-11t42-27z m-248 136v-210h210q-5 16-12 23l-175 175q-6 7-23 12z m215-853v572h-232q-23 0-38 15t-16 38v233h-429v-858h715z m-357 500q29 0 50-21t21-50v-214q0-29-21-50t-50-22h-215q-29 0-50 22t-21 50v214q0 29 21 50t50 21h215z m274-1q11-4 11-16v-322q0-12-11-17-4-1-7-1-7 0-12 5l-148 149v50l148 148q5 5 12 5 3 0 7-1z" horiz-adv-x="857.1" />
<glyph glyph-name="clock" unicode="&#xe81c;" d="m500 546v-250q0-7-5-12t-13-5h-178q-8 0-13 5t-5 12v36q0 8 5 13t13 5h125v196q0 8 5 13t12 5h36q8 0 13-5t5-13z m232-196q0 83-41 152t-110 111-152 41-153-41-110-111-41-152 41-152 110-111 153-41 152 41 110 111 41 152z m125 0q0-117-57-215t-156-156-215-58-216 58-155 156-58 215 58 215 155 156 216 58 215-58 156-156 57-215z" horiz-adv-x="857.1" />
<glyph glyph-name="clock-1" unicode="&#xe81d;" d="m460 810q190 0 325-135t135-325-135-325-325-135-325 135-135 325 135 325 325 135z m0-820q150 0 255 106t105 254q0 150-105 255t-255 105q-148 0-254-105t-106-255q0-148 106-254t254-106z m36 620l0-244 150-150-50-50-170 170 0 274 70 0z" horiz-adv-x="920" />
<glyph glyph-name="back-in-time" unicode="&#xe81e;" d="m532 760q170 0 289-120t119-290-119-290-289-120q-138 0-252 88l70 76q82-60 182-60 126 0 216 90t90 216q0 128-90 218t-216 90q-124 0-213-86t-93-210l142 0-184-206-184 206 124 0q4 166 123 282t285 116z m-36-190l70 0 0-204 130-130-50-50-150 150 0 234z" horiz-adv-x="940" />
<glyph glyph-name="clock-2" unicode="&#xe81f;" d="m464 685q-138 0-236-98t-98-237 98-237 236-97 237 97 98 237-98 237-237 98z m1 112q184 0 315-131t131-316-131-315-315-132-316 132-131 315 131 316 316 131z m151-518l-80-80-109 111q-19 17-19 41l0 223 113 0 0-199z" horiz-adv-x="928" />
<glyph glyph-name="clock-3" unicode="&#xe820;" d="m406 757c224 0 407-182 407-407 0-223-183-406-407-406-225 0-406 183-406 406 0 225 181 407 406 407z m0-723c175 0 317 143 317 318s-142 316-317 316-317-141-317-316 142-318 317-318z m120 268l-127 0c-14 0-25 5-33 15l-143 156c-39 41 25 101 65 61l130-142 108 0c62 0 55-90 0-90z m-145 287c0 13 12 24 24 24s24-11 24-24-11-24-24-24-24 12-24 24z m167-65c0 13 11 24 23 24s24-11 24-24-11-24-24-24-23 12-23 24z m73-171c0 12 12 24 24 24s24-12 24-24-11-24-24-24-24 11-24 24z m-66-168c0 13 11 24 24 24s24-11 24-24-12-23-24-23-24 11-24 23z m-175-72c0 12 11 24 24 24s24-12 24-24-12-24-24-24-24 11-24 24z m-162 65c0 12 11 24 23 24s24-12 24-24-11-24-24-24-23 11-23 24z m-75 175c0 12 11 24 23 24s24-12 24-24-11-24-24-24-23 11-23 24z" horiz-adv-x="813" />
<glyph glyph-name="clock-alt" unicode="&#xe821;" d="m406 757c224 0 407-182 407-407 0-223-183-406-407-406-225 0-406 183-406 406 0 225 181 407 406 407z m0-723c175 0 317 143 317 318s-142 316-317 316-317-141-317-316 142-318 317-318z m108 268l-115 0c-14 0-25 5-33 15l-131 143c-39 42 25 102 65 62l118-130 96 0c61 0 55-90 0-90z" horiz-adv-x="813" />
<glyph glyph-name="videocam" unicode="&#xe822;" d="m741 414l255 159 0-445-255 158 0 128z m-741-314l0 500 683 0 0-500-683 0z" horiz-adv-x="996" />
<glyph glyph-name="clock-4" unicode="&#xe823;" d="m0 350q0 95 37 182t100 149 150 100 182 37 182-37 149-100 100-149 37-182-37-182-100-150-149-100-182-37-182 37-150 100-100 150-37 182z m117 0q0-96 47-177t128-128 177-47q95 0 176 47t128 128 47 177q0 95-47 176t-128 128-176 47q-72 0-137-28t-112-75-75-112-28-136z m293 0v224q0 24 17 41t42 18 41-18 17-41v-200l142-141q17-17 17-42t-17-41-41-17q-25 0-42 17l-159 158q-1 2-4 5t-3 4q-1 2-2 4l-2 3t-1 4q-1 0-2 5-2 5-2 5-1 6-1 12z" horiz-adv-x="937.5" />
<glyph glyph-name="stopwatch" unicode="&#xe824;" d="m0 617l246 246 81-82-40-41 42-43q58 34 124 52v101h231v-101q99-26 178-90t124-158 45-200q0-94-36-180t-99-148-148-99-179-37-181 37-147 99-99 148-37 180q0 123 62 231l-44 44-41-41z m222-316q0-94 46-174t127-127 174-47 174 47 126 127 47 174-47 174-126 126-174 47-174-47-127-126-46-174z m118 130q0 24 16 41 17 17 41 17t41-17l140-140h198q24 0 41-17t16-41q0-25-17-40-17-18-40-18h-222q-3 0-11 1l-5 2q-1 0-3 1t-3 0q-1 1-3 2t-2 1l-5 3q-3 2-9 8l-157 156q-16 17-16 41z" horiz-adv-x="1031.7" />
<glyph glyph-name="clock-circled" unicode="&#xe825;" d="m0 350q0 207 147 354t353 146 354-146 146-354-146-354-354-146-353 146-147 354z m268 90l236-236 338 337-90 90-248-248-147 147-9-10-71-70z" horiz-adv-x="1000" />
<glyph glyph-name="clock-5" unicode="&#xe826;" d="m0 349q0 188 134 322t322 134 321-134 133-322-133-321-321-133-322 133-134 321z m119 0q0-140 99-238t238-99 238 99 99 238-99 238-238 99-238-99-99-238z m172-69l0 117 117 0 0 213 117 0 0-330-234 0z" horiz-adv-x="910" />
<glyph glyph-name="videocam-1" unicode="&#xe827;" d="m0 100l0 500q0 39 27 66t67 28l594 0q39 0 66-28t27-66l0-39 84 84q20 17 45 17l27 0q26 0 44-18t19-44l0-500q0-27-19-45t-44-17l-27 0q-25 0-45 17l-84 84 0-39q0-39-27-66t-66-28l-594 0q-39 0-67 28t-27 66z m63 0q0-14 8-22t23-9l594 0q13 0 22 9t9 22l0 500q0 14-9 22t-22 9l-594 0q-14 0-23-9t-8-22l0-500z m687 156l31-31 125-125 31 0 0 500-31 0-156-156 0-188z" horiz-adv-x="1000" />
<glyph glyph-name="clock-6" unicode="&#xe828;" d="m1000 349q0-136-67-251t-182-182-251-67-251 67-182 182-67 251 67 251 182 182 251 67 251-67 182-182 67-251z m-117 0q0 158-112 271t-271 112q-126 0-226-74l2-2q-48-35-83-83l-2 2q-74-100-74-226 0-158 113-270t270-113q126 0 226 74l-2 2q48 35 83 83l2-2q74 100 74 226z m-203-200q0-25-17-42t-43-18q-26 0-42 18l-120 120q-18 18-18 62v320q0 25 18 43t42 17 43-17 17-43v-315l102-103q18-16 18-42z" horiz-adv-x="1000" />
<glyph glyph-name="picture" unicode="&#xe829;" d="m856 518l-100 0-124 150-214-150-180 0q-52 0-90-39t-38-91l0-160-108 296q-10 38 22 52l680 248q36 10 50-24z m106-90q16 0 27-12t11-28l0-472q0-16-11-28t-27-12l-724 0q-16 0-27 12t-11 28l0 472q0 16 11 28t27 12l724 0z m-56-452l0 162-72 160-166-60-130-132-138 170-92-214 0-86 598 0z" horiz-adv-x="1000" />
<glyph glyph-name="picture-outline" unicode="&#xe82a;" d="m339 559q-31 0-55-23t-24-56q0-31 23-54t56-23q31 0 54 22t23 55-23 56-54 23z m0 51q54 0 92-37t38-93-38-92-92-38-92 38-38 92 38 93 92 37z m156-416q-49 0-94 26t-88 27q-40 0-84-105l592 0q-18 85-46 145t-46 63q-34 0-96-70-25-27-41-42t-43-29-54-15z m234 209q46 0 85-78t55-157l16-78-729 0q3 9 7 23t18 49 32 63 43 50 57 23q55 0 101-26t81-25q25 0 54 24t53 54 57 53 70 25z m312 260l0-625q0-43-30-73t-73-31l-834 0q-44 0-74 31t-30 73l0 625q0 42 30 73t74 31l834 0q42 0 73-31t30-73z m-103-625l0 625-834 0 0-625 834 0z" horiz-adv-x="1041" />
<glyph glyph-name="picture-1" unicode="&#xe82b;" d="m209 481q0 130 130 130t130-130-130-130-130 130z m520-79q41 0 77-61 52-93 79-251l-729 0 17 52q17 54 55 105t85 51q53 0 126-38 25-14 56-14 38 0 86 55 58 65 92 85 27 16 56 16z m-729 261q0 43 30 73t74 31l834 0q42 0 73-31t30-73l0-625q0-44-30-74t-73-31l-834 0q-43 0-73 31t-31 74l0 625z m938-625l0 625-834 0 0-625 834 0z" horiz-adv-x="1041" />
<glyph glyph-name="picture-2" unicode="&#xe82c;" d="m0-68l0 836 1000 0 0-836-1000 0z m76 78l848 0 0 680-848 0 0-680z m90 80l0 59 150 195 102-86 193 291 223-228 0-231-668 0z m0 416q0 37 24 62t62 24q33 0 58-24t24-62q0-33-24-57t-58-25q-37 0-62 25t-24 57z" horiz-adv-x="1000" />
<glyph glyph-name="picture-3" unicode="&#xe82d;" d="m1360 849v-1000h-1360v1000h1360z m-1240-880h1120v760h-1120v-760z m1000 560q0-33-23-56t-57-24-56 24-24 56 24 57 56 23 57-23 23-57z m43-473q2-1 1-4t-4-3h-956q-4 0-4 4v2q18 36 135 280t144 299q1 2 4 3t3-2l311-386 152 122h7l1-2q39-50 102-155t104-158z" horiz-adv-x="1360" />
<glyph glyph-name="th-large" unicode="&#xe82e;" d="m429 279v-215q0-29-22-50t-50-21h-286q-29 0-50 21t-21 50v215q0 29 21 50t50 21h286q29 0 50-21t22-50z m0 428v-214q0-29-22-50t-50-22h-286q-29 0-50 22t-21 50v214q0 29 21 50t50 22h286q29 0 50-22t22-50z m500-428v-215q0-29-22-50t-50-21h-286q-29 0-50 21t-21 50v215q0 29 21 50t50 21h286q29 0 50-21t22-50z m0 428v-214q0-29-22-50t-50-22h-286q-29 0-50 22t-21 50v214q0 29 21 50t50 22h286q29 0 50-22t22-50z" horiz-adv-x="928.6" />
<glyph glyph-name="picture-4" unicode="&#xe82f;" d="m357 529q0-45-31-76t-76-32-76 32-31 76 31 75 76 32 76-32 31-75z m572-215v-250h-786v107l178 179 90-89 285 285z m53 393h-893q-7 0-12-5t-6-13v-678q0-8 6-13t12-5h893q7 0 13 5t5 13v678q0 7-5 13t-13 5z m89-18v-678q0-37-26-63t-63-27h-893q-36 0-63 27t-26 63v678q0 37 26 63t63 27h893q37 0 63-27t26-63z" horiz-adv-x="1071.4" />
<glyph glyph-name="heart" unicode="&#xe830;" d="m380 18l-285 283c-66 65-95 137-95 200 0 109 73 182 183 182 102 0 137-48 197-117 60 69 95 117 198 117 110 0 182-73 182-182 0-63-29-135-95-200z" horiz-adv-x="760" />
<glyph glyph-name="heart-1" unicode="&#xe831;" d="m0 530q0 103 73 176t177 73q70 0 128-35t91-92q32 58 90 93t128 34q103 0 177-73t73-176q0-95-63-166l-343-403q-25-30-62-30t-63 30l-343 403q-63 71-63 166z" horiz-adv-x="937.5" />
<glyph glyph-name="heart-2" unicode="&#xe832;" d="m1 532q7 111 75 183 94 80 212 70t190-98q38 49 92 79 113 43 217 3t150-140q30-106 10-199t-78-174q-68-94-174-184-53-49-124-103t-93-57q-13 2-28 12t-35 25-24 20q-264 199-348 357-49 96-42 206z" horiz-adv-x="955" />
<glyph glyph-name="heart-empty" unicode="&#xe833;" d="m1 521q7 115 79 191l2 0 2 2q88 76 199 76t191-70q32 27 67 45l2 2 2 0q56 23 117 23 88 2 161-44t110-124l0-2 2-3q30-106 10-202t-80-175q-62-88-162-172 0-2-2-2-49-45-107-90-34-25-59-41-33-23-55-23l-6-2-5 2q-28 3-59 29-10 6-21 16t-16 13l-2 0q-246 188-328 340l0 2q-49 94-42 209z m85-10q-6-86 33-162 74-135 303-310l2 0q6-6 18-16t19-14q8-6 15-10 8 2 14 6 22 14 51 37 58 43 105 88 94 80 151 161 107 142 58 298-27 57-78 88t-113 29q-43 0-86-17-39-22-68-57l-32-43-35 43q-52 65-141 72t-161-52q-49-55-55-141z" horiz-adv-x="953" />
<glyph glyph-name="heart-circled" unicode="&#xe834;" d="m0 350q0 207 147 354t353 146 354-146 146-354-146-354-354-146-353 146-147 354z m242 76q-4-60 22-111 47-86 189-195 2-2 13-11t18-14 16-5q27 2 119 86 57 49 94 100 70 96 37 203-20 41-57 63t-82 23q-31 0-60-12-29-15-51-43-39 49-103 54t-114-40q-37-37-41-98z" horiz-adv-x="1000" />
<glyph glyph-name="heart-3" unicode="&#xe835;" d="m775 849q126 0 207-80t81-207v-60q0-285-532-653-531 367-531 653v60q0 127 81 207t206 80q81 0 134-30t110-99q58 68 111 99t133 30z" horiz-adv-x="1063" />
<glyph glyph-name="heart-empty-1" unicode="&#xe836;" d="m1063 562v-60q0-285-532-653-531 367-531 653v60q0 127 81 207t206 80q81 0 134-30t110-99q58 68 111 99t133 30q126 0 207-80t81-207z m-117-55v50q0 58-39 114t-95 61q-12 2-37 2-53 0-83-19t-72-69l-89-105-89 105q-42 49-72 69t-83 19q-24 0-37-2-56-6-93-60t-41-115v-50q0-30 17-75 68-199 398-441 329 239 399 441 16 50 16 75z" horiz-adv-x="1063" />
<glyph glyph-name="down-dir" unicode="&#xe837;" d="m571 457q0-14-10-25l-250-250q-11-11-25-11t-25 11l-250 250q-11 11-11 25t11 25 25 11h500q14 0 25-11t10-25z" horiz-adv-x="571.4" />
<glyph glyph-name="up-dir" unicode="&#xe838;" d="m571 171q0-14-10-25t-25-10h-500q-15 0-25 10t-11 25 11 26l250 250q10 10 25 10t25-10l250-250q10-11 10-26z" horiz-adv-x="571.4" />
<glyph glyph-name="left-dir" unicode="&#xe839;" d="m357 600v-500q0-14-10-25t-26-11-25 11l-250 250q-10 11-10 25t10 25l250 250q11 11 25 11t26-11 10-25z" horiz-adv-x="357.1" />
<glyph glyph-name="right-dir" unicode="&#xe83a;" d="m321 350q0-14-10-25l-250-250q-11-11-25-11t-25 11-11 25v500q0 15 11 25t25 11 25-11l250-250q10-10 10-25z" horiz-adv-x="357.1" />
<glyph glyph-name="down-open" unicode="&#xe83b;" d="m939 399l-414-413q-10-11-25-11t-25 11l-414 413q-11 11-11 26t11 25l92 92q11 11 26 11t25-11l296-296 296 296q11 11 25 11t26-11l92-92q11-11 11-25t-11-26z" horiz-adv-x="1000" />
<glyph glyph-name="left-open" unicode="&#xe83c;" d="m653 682l-296-296 296-297q11-10 11-25t-11-25l-92-93q-11-10-25-10t-25 10l-414 415q-11 10-11 25t11 25l414 414q10 10 25 10t25-10l92-93q11-10 11-25t-11-25z" horiz-adv-x="714.3" />
<glyph glyph-name="right-open" unicode="&#xe83d;" d="m618 361l-414-415q-11-10-25-10t-26 10l-92 93q-11 11-11 25t11 25l296 297-296 296q-11 11-11 25t11 25l92 93q11 10 26 10t25-10l414-414q10-11 10-25t-10-25z" horiz-adv-x="714.3" />
<glyph glyph-name="up-open" unicode="&#xe83e;" d="m939 107l-92-92q-11-10-26-10t-25 10l-296 297-296-297q-11-10-25-10t-26 10l-92 92q-11 11-11 26t11 25l414 414q11 10 25 10t25-10l414-414q11-11 11-25t-11-26z" horiz-adv-x="1000" />
<glyph glyph-name="down" unicode="&#xe83f;" d="m427 125q4-10-3-19l-195-215q-6-5-13-5-8 0-13 5l-198 215q-8 9-3 19 5 11 16 11h125v696q0 8 5 13t13 5h107q8 0 13-5t5-13v-696h125q11 0 16-11z" horiz-adv-x="428.6" />
<glyph glyph-name="left" unicode="&#xe840;" d="m1000 404v-108q0-7-5-12t-13-5h-696v-125q0-12-11-17t-19 3l-215 196q-5 5-5 12 0 8 5 14l215 197q9 8 19 4 11-5 11-17v-125h696q8 0 13-5t5-12z" horiz-adv-x="1000" />
<glyph glyph-name="right" unicode="&#xe841;" d="m964 352q0-8-5-14l-215-197q-9-8-19-4-11 5-11 17v125h-696q-8 0-13 5t-5 12v108q0 7 5 12t13 5h696v125q0 12 11 17t19-3l215-196q5-5 5-12z" horiz-adv-x="1000" />
<glyph glyph-name="up" unicode="&#xe842;" d="m427 575q-5-11-16-11h-125v-696q0-8-5-13t-13-5h-107q-8 0-13 5t-5 13v696h-125q-12 0-16 11t3 19l195 215q5 5 13 5 7 0 13-5l198-215q7-9 3-19z" horiz-adv-x="428.6" />
<glyph glyph-name="down-big" unicode="&#xe843;" d="m899 386q0-30-21-50l-363-364q-22-21-51-21-29 0-50 21l-363 364q-21 20-21 50 0 29 21 51l41 41q22 21 51 21 29 0 50-21l164-164v393q0 29 21 50t51 22h71q29 0 50-22t21-50v-393l164 164q21 21 51 21 29 0 50-21l42-42q21-21 21-50z" horiz-adv-x="928.6" />
<glyph glyph-name="left-big" unicode="&#xe844;" d="m857 350v-71q0-30-18-51t-47-21h-393l164-164q21-20 21-50t-21-50l-42-43q-21-20-51-20-29 0-50 20l-364 364q-20 21-20 50 0 29 20 51l364 363q21 21 50 21 29 0 51-21l42-42q21-21 21-50t-21-51l-164-164h393q29 0 47-20t18-51z" horiz-adv-x="857.1" />
<glyph glyph-name="right-big" unicode="&#xe845;" d="m821 314q0-30-20-50l-363-364q-22-20-51-20-29 0-50 20l-42 42q-22 21-22 51t22 51l163 163h-393q-29 0-47 21t-18 51v71q0 30 18 51t47 20h393l-163 164q-22 21-22 51t22 50l42 42q21 21 50 21 29 0 51-21l363-363q20-20 20-51z" horiz-adv-x="857.1" />
<glyph glyph-name="up-big" unicode="&#xe846;" d="m899 308q0-28-21-50l-42-42q-21-21-50-21-30 0-51 21l-164 164v-393q0-29-20-47t-51-19h-71q-30 0-51 19t-21 47v393l-164-164q-20-21-50-21t-50 21l-42 42q-21 21-21 50 0 30 21 51l363 363q20 21 50 21 30 0 51-21l363-363q21-22 21-51z" horiz-adv-x="928.6" />
<glyph glyph-name="down-circled2" unicode="&#xe847;" d="m625 332q0-7-6-13l-178-178q-6-5-12-5t-13 5l-179 178q-8 9-4 20 5 11 17 11h107v196q0 8 5 13t13 5h107q8 0 13-5t5-13v-196h107q8 0 13-5t5-13z m-196 322q-83 0-153-41t-110-111-41-152 41-152 110-111 153-41 152 41 110 111 41 152-41 152-110 111-152 41z m428-304q0-117-57-215t-156-156-215-58-216 58-155 156-58 215 58 215 155 156 216 58 215-58 156-156 57-215z" horiz-adv-x="857.1" />
<glyph glyph-name="up-circled2" unicode="&#xe848;" d="m624 361q-5-11-17-11h-107v-196q0-8-5-13t-13-5h-107q-8 0-13 5t-5 13v196h-107q-8 0-13 5t-5 13q0 7 6 13l178 178q6 5 13 5t12-5l179-178q8-9 4-20z m-195 293q-83 0-153-41t-110-111-41-152 41-152 110-111 153-41 152 41 110 111 41 152-41 152-110 111-152 41z m428-304q0-117-57-215t-156-156-215-58-216 58-155 156-58 215 58 215 155 156 216 58 215-58 156-156 57-215z" horiz-adv-x="857.1" />
<glyph glyph-name="left-circled2" unicode="&#xe849;" d="m643 404v-108q0-7-5-12t-13-5h-196v-108q0-7-5-12t-13-5q-7 0-14 5l-178 178q-5 5-5 13t5 13l179 178q5 5 13 5 7 0 12-5t6-12v-108h196q7 0 13-5t5-12z m89-54q0 83-41 152t-110 111-152 41-153-41-110-111-41-152 41-152 110-111 153-41 152 41 110 111 41 152z m125 0q0-117-57-215t-156-156-215-58-216 58-155 156-58 215 58 215 155 156 216 58 215-58 156-156 57-215z" horiz-adv-x="857.1" />
<glyph glyph-name="right-circled2" unicode="&#xe84a;" d="m643 350q0-8-5-13l-179-178q-5-5-13-5-7 0-12 5t-5 12v108h-197q-7 0-12 5t-6 12v108q0 7 6 12t12 5h197v108q0 7 5 12t12 5q7 0 14-5l178-178q5-5 5-13z m89 0q0 83-41 152t-110 111-152 41-153-41-110-111-41-152 41-152 110-111 153-41 152 41 110 111 41 152z m125 0q0-117-57-215t-156-156-215-58-216 58-155 156-58 215 58 215 155 156 216 58 215-58 156-156 57-215z" horiz-adv-x="857.1" />
<glyph glyph-name="down-circled" unicode="&#xe84b;" d="m460 810q190 0 325-135t135-325-135-325-325-135-325 135-135 325 135 325 325 135z m0-820q148 0 254 106t106 254q0 150-106 255t-254 105-254-105-106-255q0-148 106-254t254-106z m90 554l0-206 112 0-202-190-202 190 112 0 0 206 180 0z" horiz-adv-x="920" />
<glyph glyph-name="arrow-combo" unicode="&#xe84c;" d="m230 850l230-364-460 0z m0-1000l-230 366 460 0z" horiz-adv-x="460" />
<glyph glyph-name="left-circled" unicode="&#xe84d;" d="m920 350q0-190-135-325t-325-135-325 135-135 325q0 192 135 326t325 134 325-134 135-326z m-820 0q0-148 106-254t254-106 254 106 106 254q0 150-106 255t-254 105-254-105-106-255z m552-90l-204 0 0-112-190 202 190 204 0-114 204 0 0-180z" horiz-adv-x="920" />
<glyph glyph-name="right-circled" unicode="&#xe84e;" d="m0 350q0 190 135 325t325 135 325-135 135-325-135-325-325-135-325 135-135 325z m820 0q0 150-105 255t-255 105q-148 0-254-105t-106-255q0-148 106-254t254-106q150 0 255 106t105 254z m-552 90l204 0 0 114 190-204-190-202 0 112-204 0 0 180z" horiz-adv-x="920" />
<glyph glyph-name="up-circled" unicode="&#xe84f;" d="m460-110q-190 0-325 135t-135 325q0 192 135 326t325 134 325-134 135-326q0-190-135-325t-325-135z m0 820q-148 0-254-105t-106-255q0-148 106-254t254-106q150 0 255 106t105 254q0 150-105 255t-255 105z m-90-552l0 204-112 0 202 192 202-192-112 0 0-204-180 0z" horiz-adv-x="920" />
<glyph glyph-name="down-open-1" unicode="&#xe850;" d="m564 422l-234-224q-18-18-40-18t-40 18l-234 224q-16 16-16 41t16 41q38 38 78 0l196-188 196 188q40 38 78 0 16-16 16-41t-16-41z" horiz-adv-x="580" />
<glyph glyph-name="left-open-1" unicode="&#xe851;" d="m242 626q14 16 39 16t41-16q38-36 0-80l-186-196 186-194q38-44 0-80-16-16-40-16t-40 16l-226 236q-16 16-16 38 0 24 16 40 206 214 226 236z" horiz-adv-x="341" />
<glyph glyph-name="right-open-1" unicode="&#xe852;" d="m98 626l226-236q16-16 16-40 0-22-16-38l-226-236q-16-16-40-16t-40 16q-36 36 0 80l186 194-186 196q-36 44 0 80 16 16 41 16t39-16z" horiz-adv-x="340" />
<glyph glyph-name="up-open-1" unicode="&#xe853;" d="m564 280q16-16 16-41t-16-41q-38-38-78 0l-196 188-196-188q-40-38-78 0-16 16-16 41t16 41l234 224q16 16 40 16t40-16z" horiz-adv-x="580" />
<glyph glyph-name="down-open-mini" unicode="&#xe854;" d="m405 470q22 26 48 0 26-22 0-48l-196-192q-22-22-48 0l-196 192q-26 26 0 48 24 24 50 0l170-156z" horiz-adv-x="466" />
<glyph glyph-name="left-open-mini" unicode="&#xe855;" d="m252 180q26-26 0-48-26-26-48 0l-192 194q-24 24 0 50l192 194q22 26 48 0 26-22 0-48l-156-172z" horiz-adv-x="265" />
<glyph glyph-name="right-open-mini" unicode="&#xe856;" d="m13 180l158 170-158 172q-26 26 0 48 26 26 48 0l192-194q24-26 0-50l-192-194q-22-26-48 0-26 22 0 48z" horiz-adv-x="265" />
<glyph glyph-name="up-open-mini" unicode="&#xe857;" d="m62 230q-26-22-50 0-24 24 0 50l196 190q26 26 48 0l196-190q24-26 0-50-24-22-50 0l-170 158z" horiz-adv-x="464" />
<glyph glyph-name="down-open-big" unicode="&#xe858;" d="m63 570l370-356 372 356q22 26 48 0 26-22 0-48l-396-392q-22-22-48 0l-396 392q-26 26 0 48 24 24 50 0z" horiz-adv-x="866" />
<glyph glyph-name="left-open-big" unicode="&#xe859;" d="m452-20q26-26 0-48-26-26-48 0l-392 394q-24 24 0 50l392 394q22 26 48 0 26-22 0-48l-358-372z" horiz-adv-x="465" />
<glyph glyph-name="right-open-big" unicode="&#xe85a;" d="m13-20l358 370-358 372q-26 26 0 48 26 26 48 0l392-394q24-26 0-50l-392-394q-22-26-48 0-26 22 0 48z" horiz-adv-x="465" />
<glyph glyph-name="up-open-big" unicode="&#xe85b;" d="m804 130l-372 358-370-358q-26-22-50 0-24 24 0 50l396 390q26 26 48 0l396-390q24-26 0-50-26-22-48 0z" horiz-adv-x="864" />
<glyph glyph-name="down-1" unicode="&#xe85c;" d="m660 366l-330-380-330 380 192 0 0 350 276 0 0-350 192 0z" horiz-adv-x="660" />
<glyph glyph-name="left-1" unicode="&#xe85d;" d="m378 20l-378 330 378 330 0-190 352 0 0-278-352 0 0-192z" horiz-adv-x="730" />
<glyph glyph-name="right-1" unicode="&#xe85e;" d="m350 680l380-330-380-330 0 192-350 0 0 278 350 0 0 190z" horiz-adv-x="730" />
<glyph glyph-name="up-1" unicode="&#xe85f;" d="m660 336l-192 0 0-350-276 0 0 350-192 0 330 380z" horiz-adv-x="660" />
<glyph glyph-name="down-dir-1" unicode="&#xe860;" d="m460 550l-230-400-230 400 460 0z" horiz-adv-x="460" />
<glyph glyph-name="left-dir-1" unicode="&#xe861;" d="m400 580l0-460-400 230z" horiz-adv-x="400" />
<glyph glyph-name="right-dir-1" unicode="&#xe862;" d="m0 580l400-230-400-230 0 460z" horiz-adv-x="400" />
<glyph glyph-name="up-dir-1" unicode="&#xe863;" d="m0 150l230 400 230-400-460 0z" horiz-adv-x="460" />
<glyph glyph-name="down-thin" unicode="&#xe864;" d="m500 100l-250-240-250 240 162 0 0 740 176 0 0-740 162 0z" horiz-adv-x="500" />
<glyph glyph-name="left-thin" unicode="&#xe865;" d="m240 100l-240 250 240 250 0-160 740 0 0-178-740 0 0-162z" horiz-adv-x="980" />
<glyph glyph-name="right-thin" unicode="&#xe866;" d="m742 100l0 162-742 0 0 178 742 0 0 160 238-250z" horiz-adv-x="980" />
<glyph glyph-name="up-thin" unicode="&#xe867;" d="m500 602l-162 0 0-742-176 0 0 742-162 0 250 238z" horiz-adv-x="500" />
<glyph glyph-name="ccw" unicode="&#xe868;" d="m532 736q170 0 289-120t119-290-119-290-289-120q-142 0-252 88l70 74q84-60 182-60 126 0 216 90t90 218-90 218-216 90q-124 0-214-87t-92-211l142 0-184-204-184 204 124 0q2 166 122 283t286 117z" horiz-adv-x="940" />
<glyph glyph-name="arrows-ccw" unicode="&#xe869;" d="m186 140l116 116 0-292-276 16 88 86q-116 122-114 290t120 288q100 100 240 116l4-102q-100-16-172-88-88-88-90-213t84-217z m332 598l276-16-88-86q116-122 114-290t-120-288q-96-98-240-118l-2 104q98 16 170 88 88 88 90 213t-84 217l-114-116z" horiz-adv-x="820" />
<glyph glyph-name="loop" unicode="&#xe86a;" d="m575 183l168 223 168-223-112 0 0-57q0-69-48-118t-119-49l-334 0q-70 0-119 49t-49 118l0 57 111 0 0-57q0-22 17-39t40-16l334 0q23 0 40 15t16 40l0 57-113 0z m-221 335l-167-224-169 224 112 0 0 55q0 69 49 118t119 50l334 0q70 0 119-50t48-118l0-55-111 0 0 55q0 24-16 40t-40 16l-334 0q-24 0-40-16t-17-40l0-55 113 0z" horiz-adv-x="928" />
<glyph glyph-name="cw" unicode="&#xe86b;" d="m576 294l112 0q0-139-98-237t-237-98-237 98-98 237 98 237 237 98l66 0-33 33 80 79 166-168-166-168-80 79 33 32-66 2q-93 0-158-66t-65-158 65-158 158-65 158 65 65 158z" horiz-adv-x="705" />
<glyph glyph-name="loop-alt" unicode="&#xe86c;" d="m799 351l112 0 0-56q0-69-48-119t-119-49l-391 0 0-111-223 168 223 167 0-112 391 0q23 0 39 16t16 40l0 56z m-669 56l0-56-112 0 0 56q0 70 49 118t119 49l390 0 0 111 223-166-223-168 0 111-390 0q-24 0-40-16t-16-39z" horiz-adv-x="928" />
<glyph glyph-name="exchange" unicode="&#xe86d;" d="m911 127l-670 0 0-111-223 168 223 167 0-112 670 0 0-112z m-893 335l0 112 670 0 0 111 223-166-223-168 0 111-670 0z" horiz-adv-x="928" />
<glyph glyph-name="down-dir-2" unicode="&#xe86e;" d="m540 587l-269-473-271 473 540 0z" horiz-adv-x="540" />
<glyph glyph-name="left-dir-2" unicode="&#xe86f;" d="m510 93l-510 256 510 259 0-515z" horiz-adv-x="510" />
<glyph glyph-name="right-dir-2" unicode="&#xe870;" d="m0 608l510-257-510-258 0 515z" horiz-adv-x="510" />
<glyph glyph-name="up-dir-2" unicode="&#xe871;" d="m0 114l269 473 271-473-540 0z" horiz-adv-x="540" />
<glyph glyph-name="down-2" unicode="&#xe872;" d="m405 334l213 0-308-306-310 308 213 0-3 337 195 0 0-339z" horiz-adv-x="618" />
<glyph glyph-name="up-2" unicode="&#xe873;" d="m213 366l-213 0 308 307 310-309-213 0 3-336-195 0 0 338z" horiz-adv-x="618" />
<glyph glyph-name="down-open-2" unicode="&#xe874;" d="m0 533q0 25 18 43t44 18 42-18l305-303 304 303q18 18 43 18t43-18q18-18 18-43t-18-43l-390-391-391 391q-18 19-18 43z" horiz-adv-x="817.4" />
<glyph glyph-name="left-open-2" unicode="&#xe875;" d="m0 353l391 391q18 18 43 18 24 0 43-18 18-18 18-44t-18-43l-304-304 304-305q18-17 18-43t-18-43q-18-18-43-18t-43 18z" horiz-adv-x="495.1" />
<glyph glyph-name="right-open-2" unicode="&#xe876;" d="m0 0q0 25 18 43l305 304-305 304q-18 18-18 44t18 43 44 18 43-18l390-391-390-391q-19-18-43-18t-44 18q-18 18-18 44z" horiz-adv-x="495.1" />
<glyph glyph-name="up-open-2" unicode="&#xe877;" d="m0 167q0 26 18 43l391 391 390-391q17-17 17-43 0-26-17-44-18-17-44-17t-43 17l-303 305-305-305q-18-17-43-17t-43 17q-18 18-18 44z" horiz-adv-x="816.9" />
<glyph glyph-name="down-open-3" unicode="&#xe878;" d="m0 526l148 148 352-351 352 351 148-148-352-352-148-148-148 148z" horiz-adv-x="1000" />
<glyph glyph-name="left-open-3" unicode="&#xe879;" d="m0 350l148 149 352 351 148-148-351-352 351-352-148-148-352 352z" horiz-adv-x="648" />
<glyph glyph-name="right-open-3" unicode="&#xe87a;" d="m0-2l352 352-352 352 148 148 352-351 148-149-148-148-352-352z" horiz-adv-x="648" />
<glyph glyph-name="up-open-3" unicode="&#xe87b;" d="m0 174l352 352 148 148 148-148 352-352-148-148-352 351-352-351z" horiz-adv-x="1000" />
<glyph glyph-name="down-3" unicode="&#xe87c;" d="m0 283q0 25 18 43t44 18 42-18l244-243v642q0 25 18 43t43 18 43-18 18-43v-642l243 243q18 18 43 18t43-18q18-18 18-43t-18-44l-390-390-391 390q-18 20-18 44z" horiz-adv-x="817.4" />
<glyph glyph-name="left-2" unicode="&#xe87d;" d="m0 353l390 391q19 18 44 18 25 0 43-18t18-44-18-43l-243-243h642q25 0 43-18t18-43-18-43-43-18h-642l243-243q18-18 18-44t-18-43-43-18-44 18z" horiz-adv-x="938" />
<glyph glyph-name="right-2" unicode="&#xe87e;" d="m0 347q0 26 18 43t43 17h642l-242 244q-19 18-19 44t19 42q17 19 42 19t44-19l390-390-390-391q-20-18-44-18t-42 18-19 44 19 43l242 242h-642q-25 0-43 18t-18 44z" horiz-adv-x="938" />
<glyph glyph-name="up-3" unicode="&#xe87f;" d="m0 354q0 26 18 44l391 390 390-390q18-18 18-44 0-26-18-43-18-18-43-18t-43 18l-243 243v-642q0-25-18-43t-43-18q-26 0-44 18t-17 43v642l-244-243q-18-18-43-18t-43 18q-18 17-18 43z" horiz-adv-x="817.4" />
<glyph glyph-name="left-fat" unicode="&#xe880;" d="m0 350q0 9 5 17t11 14l5 4 581 362q32 21 55 8t22-54v-146h205q21 0 37-16t16-37v-304q0-22-16-38t-37-15h-205v-147q0-40-22-53t-55 8l-581 362q-21 14-21 35z" horiz-adv-x="937.5" />
<glyph glyph-name="right-fat" unicode="&#xe881;" d="m0 198v305q0 21 16 37t37 15h205v147q0 40 22 53t55-8l582-361q20-15 20-35 0-10-5-18t-11-13l-4-4-582-363q-32-21-55-8t-22 53v147h-205q-21 0-37 16t-16 37z" horiz-adv-x="937.5" />
<glyph glyph-name="down-bold" unicode="&#xe882;" d="m0 418h215v400h360v-400h215l-396-537z" horiz-adv-x="790.5" />
<glyph glyph-name="down-fat" unicode="&#xe883;" d="m5 538q13 23 53 23h147v205q0 21 16 37t37 15h304q22 0 38-15t15-37v-205h147q40 0 53-23t-7-54l-363-582q-1-2-5-6t-12-9-18-6-18 5-13 11l-4 5-363 582q-21 32-7 54z" horiz-adv-x="820.3" />
<glyph glyph-name="up-fat" unicode="&#xe884;" d="m5 162q-14 22 7 54l363 582q14 20 34 20 10 0 19-5t12-10l5-5 362-582q21-32 8-54t-54-23h-147v-205q0-21-15-37t-37-16h-305q-21 0-37 16t-15 37v205h-147q-40 0-53 23z" horiz-adv-x="819.3" />
<glyph glyph-name="left-bold" unicode="&#xe885;" d="m0 365l527 381v-205h410v-352h-410v-235z" horiz-adv-x="937.5" />
<glyph glyph-name="right-bold" unicode="&#xe886;" d="m0 170v359h401v217l536-397-536-395v216h-401z" horiz-adv-x="937.5" />
<glyph glyph-name="up-bold" unicode="&#xe887;" d="m0 282l397 536 394-536h-216v-401h-359v401h-216z" horiz-adv-x="791" />
<glyph glyph-name="ccw-1" unicode="&#xe888;" d="m2 439q5 8 20 8h69q17 79 59 147t103 118 136 78 161 28q95 0 181-37t150-99 100-150 37-181-37-182-100-150-150-100-181-38q-162 0-289 100-24 18-27 48t14 54q19 24 49 27t53-15q89-68 200-68 87 0 162 44t117 117 43 163q0 65-26 125t-68 103-103 69-125 25q-107 0-192-63t-116-163h43q15 0 20-8t-3-21l-135-221q-6-8-14-8-3 0-6 2t-5 4l-1 2-136 221q-8 13-3 21z" horiz-adv-x="1018.1" />
<glyph glyph-name="arrows-cw" unicode="&#xe889;" d="m0-150l0 402 402 0-160-160q108-107 258-107 125 0 222 75t130 192l138 0q-35-173-173-288t-317-114q-207 0-353 146z m10 598q35 174 173 288t317 114q207 0 354-146l146 146 0-402-402 0 160 160q-108 107-258 107-125 0-222-75t-130-192l-138 0z" horiz-adv-x="1000" />
<glyph glyph-name="down-circle" unicode="&#xe88a;" d="m1000 349q0-136-67-251t-182-182-251-67-251 67-182 182-67 251 67 251 182 182 251 67 251-67 182-182 67-251z m-500-186l232 233-71 71-161-161-161 161-71-71z" horiz-adv-x="1000" />
<glyph glyph-name="left-circle" unicode="&#xe88b;" d="m1000 349q0-136-67-251t-182-182-251-67-251 67-182 182-67 251 67 251 182 182 251 67 251-67 182-182 67-251z m-453-232l71 71-161 161 161 161-71 71-233-232z" horiz-adv-x="1000" />
<glyph glyph-name="right-circle" unicode="&#xe88c;" d="m1000 349q0-136-67-251t-182-182-251-67-251 67-182 182-67 251 67 251 182 182 251 67 251-67 182-182 67-251z m-547-232l233 232-233 232-71-71 161-161-161-161z" horiz-adv-x="1000" />
<glyph glyph-name="up-circle" unicode="&#xe88d;" d="m1000 349q0-136-67-251t-182-182-251-67-251 67-182 182-67 251 67 251 182 182 251 67 251-67 182-182 67-251z m-339-118l71 71-232 233-232-233 71-71 161 161z" horiz-adv-x="1000" />
<glyph glyph-name="arrows-cw-1" unicode="&#xe88e;" d="m707 700l150 150v-405h-405l153 153q-77 62-176 62-111 0-193-76t-92-186h-143q9 170 133 287t295 117q157 0 278-102z m-278-660q111 0 193 76t91 186h143q-9-170-133-287t-294-117q-158 0-279 102l-150-150v405h405l-153-153q78-62 177-62z" horiz-adv-x="857" />
<glyph glyph-name="updown-circle" unicode="&#xe88f;" d="m1000 350q0-136-67-251t-182-182-251-67-251 67-182 182-67 251 67 251 182 182 251 67 251-67 182-182 67-251z m-353-294l162 236h-103v293h-118v-293h-103z m-235 353h103l-162 265-162-265h103v-294h118v294z" horiz-adv-x="1000" />
<glyph glyph-name="left-open-4" unicode="&#xe890;" d="m308 349l346-346-154-154-500 500 500 500 154-154z" horiz-adv-x="654" />
<glyph glyph-name="right-open-4" unicode="&#xe891;" d="m154 849l500-500-500-500-154 154 346 346-346 346z" horiz-adv-x="654" />
<glyph glyph-name="arrows-cw-2" unicode="&#xe892;" d="m843 261q0-3 0-4-36-150-150-243t-267-93q-81 0-157 31t-136 88l-72-72q-11-11-25-11t-25 11-11 25v250q0 14 11 25t25 11h250q14 0 25-11t10-25-10-25l-77-77q40-37 90-57t105-20q74 0 139 37t104 99q6 10 29 66 5 13 17 13h107q8 0 13-6t5-12z m14 446v-250q0-14-10-25t-26-11h-250q-14 0-25 11t-10 25 10 25l77 77q-82 77-194 77-75 0-140-37t-104-99q-6-10-29-66-5-13-17-13h-111q-7 0-13 6t-5 12v4q36 150 151 243t268 93q81 0 158-31t137-88l72 72q11 11 25 11t26-11 10-25z" horiz-adv-x="857.1" />
<glyph glyph-name="ccw-2" unicode="&#xe893;" d="m857 350q0-87-34-166t-91-137-137-92-166-34q-96 0-183 41t-147 114q-4 6-4 13t5 11l76 77q6 5 14 5 9-1 13-7 41-53 100-82t126-29q58 0 110 23t92 61 61 91 22 111-22 111-61 91-92 61-110 23q-55 0-105-20t-90-57l77-77q17-16 8-38-10-23-33-23h-250q-15 0-25 11t-11 25v250q0 24 22 33 22 10 39-8l72-72q60 57 137 88t159 31q87 0 166-34t137-92 91-137 34-166z" horiz-adv-x="857.1" />
<glyph glyph-name="left-circled-1" unicode="&#xe894;" d="m714 314v72q0 14-10 25t-25 10h-281l106 106q11 11 11 25t-11 25l-51 51q-10 10-25 10t-25-10l-202-202-51-51q-10-10-10-25t10-25l51-51 202-202q10-10 25-10t25 10l51 51q10 10 10 25t-10 25l-106 106h281q14 0 25 10t10 25z m143 36q0-117-57-215t-156-156-215-58-216 58-155 156-58 215 58 215 155 156 216 58 215-58 156-156 57-215z" horiz-adv-x="857.1" />
<glyph glyph-name="right-circled-1" unicode="&#xe895;" d="m717 350q0 15-10 25l-51 51-202 202q-10 10-25 10t-25-10l-51-51q-10-10-10-25t10-25l106-106h-280q-15 0-26-10t-10-25v-72q0-14 10-25t26-10h280l-106-106q-10-10-10-25t10-25l51-51q10-10 25-10t25 10l202 202 51 51q10 10 10 25z m140 0q0-117-57-215t-156-156-215-58-216 58-155 156-58 215 58 215 155 156 216 58 215-58 156-156 57-215z" horiz-adv-x="857.1" />
<glyph glyph-name="up-circled-1" unicode="&#xe896;" d="m717 351q0 15-11 25l-202 202-50 50q-10 11-25 11t-26-11l-50-50-202-202q-10-10-10-25t10-26l50-50q11-10 26-10t25 10l105 105v-280q0-14 11-25t25-11h71q15 0 25 11t11 25v280l105-105q11-11 26-11t25 11l50 50q11 11 11 26z m140-1q0-117-57-215t-156-156-215-58-216 58-155 156-58 215 58 215 155 156 216 58 215-58 156-156 57-215z" horiz-adv-x="857.1" />
<glyph glyph-name="down-circled-1" unicode="&#xe897;" d="m717 349q0 16-11 26l-50 50q-10 10-25 10t-26-10l-105-105v280q0 15-11 25t-25 11h-71q-15 0-25-11t-11-25v-280l-105 105q-11 11-25 11t-26-11l-50-50q-10-10-10-26t10-25l202-202 50-50q11-10 26-10t25 10l50 50 202 202q11 10 11 25z m140 1q0-117-57-215t-156-156-215-58-216 58-155 156-58 215 58 215 155 156 216 58 215-58 156-156 57-215z" horiz-adv-x="857.1" />
<glyph glyph-name="exchange-1" unicode="&#xe898;" d="m1000 189v-107q0-7-5-12t-13-6h-768v-107q0-7-5-12t-13-6q-6 0-13 6l-178 178q-5 5-5 13 0 8 5 13l179 178q5 5 12 5 8 0 13-5t5-13v-107h768q7 0 13-5t5-13z m0 304q0-8-5-13l-179-179q-5-5-12-5-8 0-13 6t-5 12v107h-768q-7 0-13 6t-5 12v107q0 8 5 13t13 5h768v107q0 8 5 13t13 5q6 0 13-5l178-178q5-5 5-13z" horiz-adv-x="1000" />
<glyph glyph-name="link" unicode="&#xe899;" d="m812 171q0 23-15 38l-116 116q-16 16-38 16-24 0-40-18 1-1 10-10t12-12 9-11 7-14 2-15q0-23-16-38t-38-16q-8 0-15 2t-14 7-11 9-12 12-10 10q-19-17-19-40 0-23 16-38l115-116q15-15 38-15 22 0 38 15l82 81q15 16 15 37z m-392 394q0 22-15 38l-115 115q-16 16-38 16-22 0-38-15l-82-82q-16-15-16-37 0-22 16-38l116-116q15-15 38-15 23 0 40 17-2 2-11 11t-12 12-8 10-7 14-2 16q0 22 15 38t38 15q9 0 16-2t14-7 10-8 12-12 11-11q18 17 18 41z m500-394q0-67-48-113l-82-81q-46-47-113-47-68 0-114 48l-115 115q-46 47-46 114 0 68 49 116l-49 49q-48-49-116-49-67 0-114 47l-116 116q-47 47-47 114t47 113l82 82q47 46 114 46 67 0 114-47l114-116q47-46 47-113 0-69-49-117l49-49q48 49 116 49 67 0 114-47l116-116q47-47 47-114z" horiz-adv-x="928.6" />
<glyph glyph-name="unlink" unicode="&#xe89a;" d="m245 141l-143-143q-5-5-13-5-6 0-13 5-5 5-5 13t5 13l143 142q6 5 13 5t13-5q5-5 5-12t-5-13z m94-23v-179q0-8-5-13t-13-5-12 5-5 13v179q0 8 5 13t12 5 13-5 5-13z m-125 125q0-8-5-13t-13-5h-178q-8 0-13 5t-5 13 5 13 13 5h178q8 0 13-5t5-13z m706-72q0-67-48-113l-82-81q-46-47-113-47-68 0-114 48l-186 187q-12 11-24 31l134 10 152-153q15-15 38-15t38 15l82 81q15 16 15 37 0 23-15 38l-153 154 10 133q20-12 31-23l188-188q47-48 47-114z m-345 404l-133-10-152 153q-16 16-38 16-22 0-38-15l-82-82q-16-15-16-37 0-22 16-38l153-153-10-134q-20 12-32 24l-187 187q-47 48-47 114 0 67 47 113l82 82q47 46 114 46 67 0 114-47l186-187q12-12 23-32z m354-46q0-8-5-13t-13-5h-179q-8 0-13 5t-5 13 5 12 13 5h179q8 0 13-5t5-12z m-304 303v-178q0-8-5-13t-13-5-13 5-5 13v178q0 8 5 13t13 5 13-5 5-13z m227-84l-143-143q-6-5-13-5t-12 5q-5 6-5 13t5 13l142 142q6 5 13 5t13-5q5-5 5-12t-5-13z" horiz-adv-x="928.6" />
<glyph glyph-name="link-ext" unicode="&#xe89b;" d="m786 332v-178q0-67-47-114t-114-47h-464q-67 0-114 47t-47 114v464q0 66 47 113t114 48h393q7 0 12-5t5-13v-36q0-8-5-13t-12-5h-393q-37 0-63-26t-27-63v-464q0-37 27-63t63-27h464q37 0 63 27t26 63v178q0 8 5 13t13 5h36q8 0 13-5t5-13z m214 482v-285q0-15-11-26t-25-10-25 10l-98 99-364-364q-5-6-13-6t-13 6l-63 63q-6 6-6 13t6 13l364 364-99 98q-10 11-10 25t10 25 26 11h285q15 0 25-11t11-25z" horiz-adv-x="1000" />
<glyph glyph-name="link-ext-alt" unicode="&#xe89c;" d="m714 332v268q0 15-10 25t-25 11h-268q-24 0-33-22-10-23 8-39l80-80-298-298q-11-11-11-26t11-25l57-57q11-10 25-10t25 10l298 298 80-80q11-11 26-11 6 0 14 3 21 10 21 33z m143 286v-536q0-66-47-113t-114-48h-535q-67 0-114 48t-47 113v536q0 66 47 113t114 48h535q67 0 114-48t47-113z" horiz-adv-x="857.1" />
<glyph glyph-name="link-1" unicode="&#xe89d;" d="m294 116q14 14 34 14t36-14q32-34 0-70l-42-40q-56-56-132-56-78 0-134 56t-56 132q0 78 56 134l148 148q70 68 144 77t128-43q16-16 16-36t-16-36q-36-32-70 0-50 48-132-34l-148-146q-26-26-26-64t26-62q26-26 63-26t63 26z m450 574q56-56 56-132 0-78-56-134l-158-158q-74-72-150-72-62 0-112 50-14 14-14 34t14 36q14 14 35 14t35-14q50-48 122 24l158 156q28 28 28 64 0 38-28 62-24 26-56 31t-60-21l-50-50q-16-14-36-14t-34 14q-34 34 0 70l50 50q54 54 127 51t129-61z" horiz-adv-x="800" />
<glyph glyph-name="link-outline" unicode="&#xe89e;" d="m786 720q-23 0-40-16l-90-90-16 16q-45 45-114 45t-113-45l-218-217q-47-48-47-115 0-66 47-114l15-16-89-89q-16-16-16-40t16-41q18-18 40-18 24 0 42 18l88 90 17-16q47-48 115-48 66 0 113 48l218 217q46 46 46 114t-46 114l-16 16 90 90q17 17 17 41t-17 40q-17 16-42 16z m-625-844q-66 0-113 49t-48 113q0 67 48 115l25 25q-29 57-29 120 0 111 77 189l218 217q76 76 187 76 65 0 120-28l27 26q46 46 113 46 67 0 114-48t48-113q0-69-48-114l-25-25q30-60 30-121 0-109-79-188l-216-217q-77-78-189-78-63 0-121 29l-25-25q-47-48-114-48z m414 469q-42 2-74 33t-32 74l-95-97q42-1 73-32t32-73z m-49 218q19 0 33-14l16-16-37-38q-18-17-18-41t18-40q16-16 40-16 25 0 41 16l37 38 17-17q13-13 13-32 0-20-13-34l-218-216q-14-14-32-14-20 0-34 14l-16 15 37 37q18 18 18 42t-18 40q-17 17-40 17-24 0-41-17l-38-38-16 16q-12 13-12 33 0 21 12 34l218 217q13 14 33 14z" horiz-adv-x="948" />
<glyph glyph-name="link-2" unicode="&#xe89f;" d="m723 704q17-16 17-40t-17-41l-89-90 15-17q47-47 47-113t-47-114l-216-218q-48-47-115-47-67 0-114 47l-16 17-90-90q-18-18-40-18-24 0-42 18-16 17-16 41t16 40l90 89-16 16q-46 46-46 115 0 67 46 114l218 217q46 46 114 46t114-46l17-16 88 90q17 16 40 16t42-16z m-154-335q12 12 12 34 0 20-12 32l-16 16-38-37q-16-16-41-16-24 0-40 16t-16 40 16 41l37 38-16 16q-14 14-32 14-20 0-34-14l-218-218q-13-13-13-32 0-20 13-34l17-16 37 37q18 18 41 18 23 0 40-18 17-16 17-40t-17-41l-37-37 16-15q14-14 33-14 20 0 33 14z" horiz-adv-x="740" />
<glyph glyph-name="link-3" unicode="&#xe8a0;" d="m895 781q17-15 17-39t-17-40l-114-114q55-80 45-181t-81-170l-167-167q-81-83-198-83-85 0-153 47l-114-114q-17-17-40-17-21 0-38 17-16 17-16 40t16 38l113 115q-56 80-45 180t81 172l166 166q78 82 198 82 86 0 154-46l113 114q15 16 39 16t41-16z m-180-346q0 38-17 72l-85-86q-17-16-38-16-23 0-40 16t-17 40 17 40l85 84q-36 16-72 16-73 0-121-48l-164-168q-49-49-49-118 0-38 16-71l83 83q16 16 40 16t37-16q16-17 16-40t-16-40l-80-82q36-17 70-17 70 0 119 49l167 167q49 49 49 119z" horiz-adv-x="928" />
<glyph glyph-name="link-4" unicode="&#xe8a1;" d="m8 96q-17 66 0 132t67 115l131 131q49 49 115 67t131 0 116-67q20-20 20-49t-20-50-50-20-49 20q-35 34-82 34t-81-34l-132-131q-33-34-33-82t33-82q34-33 82-33t81 33l27 28q78-38 164-36l-91-91q-49-49-115-66t-132 0-115 66-67 115z m291 180q0 29 21 49 20 21 49 21t50-21q33-34 81-34t82 34l131 132q34 34 34 81t-34 81q-33 34-81 34t-82-34l-27-26q-77 36-164 35l91 91q50 49 116 66t131 0 115-66q49-49 67-115t0-132-67-115l-131-131q-49-49-115-67t-132 0-114 67q-21 21-21 50z" horiz-adv-x="887.2" />
<glyph glyph-name="eye" unicode="&#xe8a2;" d="m465 685q68 0 140-34t124-82 95-97 64-83l23-34q-9-14-24-37t-63-81-97-103-121-82-141-36-140 34-124 85-96 100-64 86l-23 34q8 14 23 36t63 79 98 101 122 79 141 35z m0-558q92 0 158 65t65 158-65 158-158 66-158-66-66-158 66-158 158-65z m-112 223q0 112 112 112t111-112-111-111-112 111z" horiz-adv-x="928" />
<glyph glyph-name="eye-1" unicode="&#xe8a3;" d="m488 695c291 0 487-340 487-340s-196-339-487-339-488 339-488 339 196 340 488 340z m0-579c131 0 238 108 238 239s-107 239-238 239-239-108-239-239 107-239 239-239z m107 239c0-59-50-106-107-106-59 0-107 47-107 106 0 57 48 107 107 107 57 0 107-50 107-107z" horiz-adv-x="975" />
<glyph glyph-name="eye-2" unicode="&#xe8a4;" d="m0 350q0 30 15 67t44 77 70 78 92 68 115 49 133 18 132-18 115-49 92-68 70-78 44-77 15-67q0-30-15-67t-44-77-70-78-92-68-115-48-132-18-133 18-115 48-92 68-70 78-44 77-15 67z m234 0q0-64 32-117t85-85 118-32 117 32 85 85 32 117-32 117-85 86-117 31-118-31-85-86-32-117z m136 0q0-41 29-70t70-28 69 28 29 70q0 41-29 70t-69 29-70-29-29-70z" horiz-adv-x="937.5" />
<glyph glyph-name="eye-3" unicode="&#xe8a5;" d="m0 350q6 49 64 110 79 80 176 129 129 60 260 60 137-2 260-60 103-53 176-129 64-73 64-110-6-49-64-109-79-80-176-129-129-61-260-61-137 2-260 61-103 53-176 129-64 72-64 109z m264 0q0-94 69-159t167-65 167 65 69 159-69 159-167 66-167-66-69-159z m86 1q0 60 44 102t106 42 106-42 44-102-44-102-106-43-106 43-44 102z" horiz-adv-x="1000" />
<glyph glyph-name="eye-off" unicode="&#xe8a6;" d="m0 326q6 49 64 110 79 80 176 128 129 61 260 61 29 0 59-2l74 129q10 16 23 18 4 0 8-2l51-32q17-7 2-33l-57-102-47-78-41-72-144-250-41-72-47-80-57-100q-15-25-31-15l-53 31q-15 8 0 33l49 86-8 4q-103 53-176 129-64 72-64 109z m264 0q0-74 47-133l48 84q-9 24-9 49 0 51 34 91t85 50l49 84-18 0q-98 0-167-66t-69-159z m177-295l41 71 18 0q98 0 167 65t69 159q0 74-47 133l63 109q2-2 4-3t4-1q103-52 176-129 64-72 64-109-6-49-64-109-79-80-176-129-129-61-260-61-25 0-59 4z m90 155l110 189q9-25 9-49 0-51-34-90t-85-50z" horiz-adv-x="1000" />
<glyph glyph-name="eye-4" unicode="&#xe8a7;" d="m0 341l0 18q0 1 2 3l0 4q70 130 206 213t290 83 291-83 205-215l1-1 1-1 0-4q2-6 2-8t-2-8l0-4-1-1-1-1q-68-132-205-215t-291-83-290 83-206 215l0 2q-2 2-2 3z m66 9q65-113 183-182t250-68 250 68 183 182q-65 113-183 182t-250 68-250-68-183-182z m213 0q0 90 65 154t154 65 154-65 65-154-65-154-154-65-154 65-65 154z m32 0q0-78 54-133t133-54 133 54 55 133-55 133-133 55-133-55-54-133z m62 0q0 53 37 89t88 36q16 0 16-16t-16-15q-37 0-65-28t-29-66q0-16-15-16t-16 16z" horiz-adv-x="998" />
<glyph glyph-name="hourglass" unicode="&#xe8a8;" d="m0-37v70q0 22 12 49t24 46 38 55l24 33t26 36 22 33 18 35 5 30-5 30-18 35-22 33-26 36l-24 32q-26 37-38 55t-24 46-12 49v70q0 34 24 58t59 24h419q35 0 59-24t25-58v-70q0-22-12-49t-24-46-38-55l-24-32t-27-36-22-33-17-36-6-29 6-30 17-35 22-33 27-37l24-32q25-36 38-55t24-46 12-49v-70q0-34-25-58t-59-24h-419q-34 0-59 24t-24 58z m100 35h40q0 9 2 17t9 18 12 16 17 18 19 16 22 17 23 16 25 18 24 17q8-6 26-19t28-19 25-19 25-19 19-19 16-19 10-19 4-20h40v35q0 7-14 31-8 14-42 63-53 75-71 108-34 64-34 115 0 26 7 54t25 57 30 50 36 51l7 10q33 47 42 64 6 9 9 17t4 11l1 2v35h-386v-35q1-8 13-30 10-17 43-64 53-75 71-108 34-63 34-114 0-27-8-54t-25-58-29-49-36-52q-1-1-2-2t-2-2-2-3-1-3q-34-49-43-63-13-24-13-31v-35z" horiz-adv-x="585.9" />
<glyph glyph-name="clock-7" unicode="&#xe8a9;" d="m0 350q0 121 86 213l43 236q4 22 21 36t41 15l250 0q22 0 39-15t22-36l45-244q57-64 72-144l2 1q2 1 4 1 25 0 44-19t19-44-19-44-44-18q-2 0-4 0l-2 1q-17-84-76-148l-45-240q-4-22-20-36t-40-15l-250 0q-24 0-40 15t-21 36l-45 240q-82 90-82 209z m63 0q0-103 73-177t177-73 176 73 74 177-74 177-176 73-177-73-73-177z m31 0q0 14 9 22t22 9 23-9 8-22-8-22-23-9-22 9-9 22z m54-132q0 13 9 22t23 8 22-8 9-22-9-22-22-10-23 10-9 22z m0 265q0 13 9 22t23 9 22-9 9-22-9-23-22-8-23 8-9 23z m8-402l32-169 250 0 31 169q-74-43-156-43t-157 43z m4 539q74 42 156 42t157-42l-32 167-250 0z m121-457q0 13 9 22t23 9 22-9 9-22-9-23-22-9-23 9-9 23z m0 187q0 14 10 22l162 134q8 6 14-1t2-14l-76-94-59-70q-8-8-21-8t-23 9-9 22z m0 188q0 13 9 22t23 9 22-9 9-22-9-23-22-9-23 9-9 23z m133-320q0 13 9 22t21 8 23-8 10-23q0-12-10-21t-23-10-21 10-9 22z m55 132q0 14 9 22t22 9 22-9 9-22-9-22-22-9-22 9-9 22z" horiz-adv-x="687" />
<glyph glyph-name="hourglass-1" unicode="&#xe8aa;" d="m560 622q0-44-48-96t-97-99-49-77 49-76 97-97 48-97l0-118q0-34-86-73t-194-39-194 39-86 73l0 118q0 46 48 97t97 97 49 76-49 77-97 99-48 96l0 118q0 32 87 71t193 39 193-39 87-71l0-118z m-482 112l-18-14q-4-8 4-14 92-52 216-52 132 0 220 50 14 10-16 30-96 54-202 54-120 0-204-54z m228-384q0 18 4 33t18 33 20 25 31 31 29 28q92 92 92 122l2 50q-100-54-222-54t-222 54l4-50q0-32 90-122 6-6 22-21t23-22l19-19t17-21 11-20 9-23 3-24q0-10-1-19t-6-18-8-16-11-17l-12-15t-15-16-16-15-18-16-17-16q-90-90-90-122l0-66q8 4 66 23t92 43 34 58q0 30 26 30t26-30q0-34 33-58t94-43 67-23l0 66q0 30-92 122-4 4-21 20t-22 21-18 19-18 22-12 20-9 23-2 23z" horiz-adv-x="560" />
<glyph glyph-name="menu" unicode="&#xe8ab;" d="m857 100v-71q0-15-10-25t-26-11h-785q-15 0-25 11t-11 25v71q0 15 11 25t25 11h785q15 0 26-11t10-25z m0 286v-72q0-14-10-25t-26-10h-785q-15 0-25 10t-11 25v72q0 14 11 25t25 10h785q15 0 26-10t10-25z m0 285v-71q0-15-10-25t-26-11h-785q-15 0-25 11t-11 25v71q0 15 11 26t25 10h785q15 0 26-10t10-26z" horiz-adv-x="857.1" />
<glyph glyph-name="menu-1" unicode="&#xe8ac;" d="m650 400q22 0 36-15t14-35-15-35-35-15l-600 0q-20 0-35 15t-15 35 14 35 36 15l600 0z m-600 100q-20 0-35 15t-15 35 14 35 36 15l600 0q22 0 36-15t14-35-15-35-35-15l-600 0z m600-300q22 0 36-15t14-35-15-35-35-15l-600 0q-20 0-35 15t-15 35 14 35 36 15l600 0z" horiz-adv-x="700" />
<glyph glyph-name="menu-2" unicode="&#xe8ad;" d="m68 62q0-30 21-51t51-21h793q30 0 51 21t21 51-21 51-51 21h-793q-29 0-51-21t-21-51z m0 288q0-30 21-51t51-21h793q30 0 51 21t21 51-21 51-51 21h-793q-29 0-51-21t-21-51z m0 288q0-30 21-51t51-21h793q30 0 51 21t21 51-21 51-51 21h-793q-29 0-51-21t-21-51z" horiz-adv-x="1073.2" />
<glyph glyph-name="menu-3" unicode="&#xe8ae;" d="m834 90q42 0 73-30t31-75q0-42-30-73t-74-31l-730 0q-44 0-74 31t-30 73q0 44 31 75t73 30l730 0z m0 364q44 0 74-31t30-73-30-73-74-30l-730 0q-44 0-74 30t-30 73 30 73 74 31l730 0z m0 365q44 0 74-31t30-73q0-43-31-74t-73-31l-730 0q-43 0-73 31t-31 74q0 43 30 73t74 31l730 0z" horiz-adv-x="938" />
<glyph glyph-name="doc-1" unicode="&#xe8af;" d="m600 800q42 0 71-29t29-71l0-700q0-40-29-70t-71-30l-500 0q-40 0-70 30t-30 70l0 700q0 42 30 71t70 29l500 0z m0-800l0 700-500 0 0-700 500 0z" horiz-adv-x="700" />
<glyph glyph-name="docs-1" unicode="&#xe8b0;" d="m970 480q38-10 30-46l-150-556q-4-16-18-23t-30-3l-406 110q-16 4-24 18t-4 28l24 92-180-48q-40-10-50 26l-160 602q-10 36 28 48l454 122q16 4 30-3t18-23l66-244z m-888 190l144-542 392 106-144 540z m702-742l132 492-298 82 76-282q10-34-28-46l-196-52-26-102z" horiz-adv-x="1001" />
<glyph glyph-name="doc-landscape" unicode="&#xe8b1;" d="m0 600q0 42 30 71t70 29l800 0q42 0 71-29t29-71l0-500q0-40-29-70t-71-30l-800 0q-40 0-70 30t-30 70l0 500z m900 0l-800 0 0-500 800 0 0 500z" horiz-adv-x="1000" />
<glyph glyph-name="doc-text-1" unicode="&#xe8b2;" d="m212 308l0 90 280 0 0-90-280 0z m388 492q42 0 71-29t29-71l0-700q0-40-29-70t-71-30l-500 0q-40 0-70 30t-30 70l0 700q0 42 30 71t70 29l500 0z m0-800l0 700-500 0 0-700 500 0z m-110 592l0-88-280 0 0 88 280 0z m0-392l0-88-280 0 0 88 280 0z" horiz-adv-x="700" />
<glyph glyph-name="doc-text-inv-1" unicode="&#xe8b3;" d="m600 800q42 0 71-29t29-71l0-700q0-40-29-70t-71-30l-500 0q-40 0-70 30t-30 70l0 700q0 42 30 71t70 29l500 0z m-460-208l0-88 420 0 0 88-420 0z m420-480l0 88-420 0 0-88 420 0z m0 196l0 90-418 0 0-90 418 0z" horiz-adv-x="700" />
<glyph glyph-name="book-open" unicode="&#xe8b4;" d="m340 238l0-68-200 80 0 68z m0 208l0-68-200 80 0 68z m538 346q22-12 22-42l0-640q0-34-32-46l-398-160q-8-2-10-2t-5-1-5-1-5 1-5 1l-10 2-398 160q-32 12-32 46l0 640q0 30 22 42 22 16 46 6l382-154 382 154q24 10 46-6z m-478-788l0 560-320 128 0-560z m420 128l0 560-320-128 0-560z m-60 186l0-68-200-80 0 68z m0 208l0-68-200-80 0 68z" horiz-adv-x="900" />
<glyph glyph-name="doc-2" unicode="&#xe8b5;" d="m818 595q16-16 16-36l0-521q0-65-46-111t-110-46l-522 0q-65 0-110 46t-46 111l0 625q0 65 46 110t110 46l417 0q22 0 37-15z m-110-36l-135 134 0-56q0-32 23-55t55-23l57 0z m-30-574q21 0 36 16t15 37l0 469-78 0q-53 0-92 38t-38 92l0 78-365 0q-21 0-37-15t-15-37l0-625q0-21 15-37t37-16l522 0z" horiz-adv-x="834" />
<glyph glyph-name="doc-text-2" unicode="&#xe8b6;" d="m678-119l-522 0q-65 0-110 46t-46 111l0 625q0 65 46 110t110 46l522 0q65 0 110-46t46-110l0-625q0-65-46-111t-110-46z m-522 834q-21 0-37-15t-15-37l0-625q0-21 15-37t37-16l522 0q21 0 36 16t15 37l0 625q0 21-15 37t-36 15l-522 0z m469-312l-416 0q-26 0-26 25 0 11 7 19t19 7l416 0q11 0 19-7t7-19q0-25-26-25z m0 156l-416 0q-11 0-19 8t-7 18q0 25 26 25l416 0q26 0 26-25 0-11-7-18t-19-8z m0-312l-416 0q-11 0-19 7t-7 19q0 25 26 25l416 0q26 0 26-25 0-11-7-19t-19-7z m0-157l-416 0q-26 0-26 25 0 12 7 19t19 8l416 0q11 0 19-8t7-19q0-25-26-25z" horiz-adv-x="834" />
<glyph glyph-name="doc-add" unicode="&#xe8b7;" d="m573 350q21 0 36-15t16-37-16-36-36-15l-104 0 0-105q0-22-16-37t-37-15-36 15-15 37l0 105-105 0q-21 0-36 15t-15 36 15 37 36 15l105 0 0 104q0 21 15 37t36 16 37-16 16-37l0-104 104 0z m245 245q16-16 16-36l0-521q0-65-46-111t-110-46l-522 0q-65 0-110 46t-46 111l0 625q0 65 46 110t110 46l417 0q22 0 37-15z m-110-36l-135 134 0-56q0-32 23-55t55-23l57 0z m-30-574q21 0 36 16t15 37l0 469-78 0q-53 0-92 38t-38 92l0 78-365 0q-21 0-37-15t-15-37l0-625q0-21 15-37t37-16l522 0z" horiz-adv-x="834" />
<glyph glyph-name="doc-remove" unicode="&#xe8b8;" d="m818 595q16-16 16-36l0-521q0-65-46-111t-110-46l-522 0q-65 0-110 46t-46 111l0 625q0 65 46 110t110 46l417 0q22 0 37-15z m-110-36l-135 134 0-56q0-32 23-55t55-23l57 0z m-30-574q21 0 36 16t15 37l0 469-78 0q-53 0-92 38t-38 92l0 78-365 0q-21 0-37-15t-15-37l0-625q0-21 15-37t37-16l522 0z m-105 262l-313 0q-21 0-36 15t-15 36 15 37 36 15l313 0q21 0 36-15t16-37-16-36-36-15z" horiz-adv-x="834" />
<glyph glyph-name="doc-3" unicode="&#xe8b9;" d="m409 797l279-278 0-616-670 0 0 894 391 0z m-279-781l446 0 0 446-223 0 0 223-223 0 0-669z" horiz-adv-x="705" />
<glyph glyph-name="doc-inv-1" unicode="&#xe8ba;" d="m409 797l279-278 0-616-670 0 0 894 391 0z m-59-335l224 0-224 223 0-223z" horiz-adv-x="705" />
<glyph glyph-name="article" unicode="&#xe8bb;" d="m911 685l-893 0 0 112 893 0 0-112z m-335-223l-558 0 0 112 558 0 0-112z m335-335l-893 0 0 112 893 0 0-112z m-223-224l-670 0 0 113 670 0 0-113z m223 57q0-24-16-40t-39-17-40 17-17 40 17 39 40 17q22 0 39-17t16-39z" horiz-adv-x="928" />
<glyph glyph-name="article-alt" unicode="&#xe8bc;" d="m911 685l-893 0 0 112 893 0 0-112z m-335-223l-558 0 0 112 558 0 0-112z m335-225l-893 0 0 111 893 0 0-111z m-893-277q0 56 56 56t56-56q0-57-56-57t-56 57z m280 56q22 0 39-17t16-39-16-40-39-17q-24 0-40 17t-17 40 17 39 40 17z m166-56q0 56 57 56 55 0 55-56 0-57-55-57-57 0-57 57z" horiz-adv-x="928" />
<glyph glyph-name="doc-4" unicode="&#xe8bd;" d="m0-31v761q0 37 26 62t61 26h356q3 0 6 0h0q38-3 61-26l255-245q10-12 16-25 2-4 2-6 1-1 2-5t3-6q2-11 2-21v-515q0-36-25-62t-62-26h-616q-36 0-61 26t-26 62z m87 0h616v465h-133q-73 0-124 52t-52 124v120h-307v-761z m396 641q0-36 25-62t62-25h118l-205 194v-107z" horiz-adv-x="790.5" />
<glyph glyph-name="doc-5" unicode="&#xe8be;" d="m0-150l0 674 338 0 0 326 371 0 0-1000-709 0z m0 756l0 62 189 182 65 0 0-244-254 0z" horiz-adv-x="709" />
<glyph glyph-name="doc-new" unicode="&#xe8bf;" d="m0-150l0 818 188 182 519 0 0-348-86 0 0 260-369 0 0-156-166 0 0-668 418 0 0-88-504 0z m373 207l0 162 209 0 0 207 160 0 0-207 207 0 0-162-207 0 0-207-160 0 0 207-209 0z" horiz-adv-x="949" />
<glyph glyph-name="doc-new-circled" unicode="&#xe8c0;" d="m0 350q0 207 147 354t353 146 354-146 146-354-146-354-354-146-353 146-147 354z m264-271l295 0 0 52-245 0 0 391 98 0 0 92 215 0 0-153 53 0 0 204-305 0-111-106 0-480z m218 123l123 0 0-123 94 0 0 123 121 0 0 93-121 0 0 121-94 0 0-121-123 0 0-93z" horiz-adv-x="1000" />
<glyph glyph-name="doc-circled" unicode="&#xe8c1;" d="m0 350q0 207 147 354t353 146 354-146 146-354-146-354-354-146-353 146-147 354z m316-260l368 0 0 520-192 0 0-170-176 0 0-350z m0 393l131 0 0 127-33 0-98-96 0-31z" horiz-adv-x="1000" />
<glyph glyph-name="lamp" unicode="&#xe8c2;" d="m209-110l0 104 282 0 0-104q-70-42-142-40-70-2-140 40z m276 164l-270 0q0 72-36 140t-78 113-74 112-26 139q8 120 94 206t254 86q170 0 255-86t95-206q4-60-16-113t-52-96-65-85-57-96-24-114z m-378 496q-4-4 0-20t2-20 5-19 6-18 8-18 11-19 13-19 14-19 15-21 16-23q88-122 112-212l82 0q24 94 112 212 4 6 25 35t25 36 17 29 16 33 6 28 1 35q-16 196-244 196-226 0-242-196z" horiz-adv-x="700" />
<glyph glyph-name="light-down" unicode="&#xe8c3;" d="m350 510q68 0 114-47t46-113q0-68-46-114t-114-46q-66 0-113 46t-47 114q0 66 47 113t113 47z m0-264q44 0 73 30t29 74q0 42-29 72t-73 30q-42 0-72-30t-30-72q0-44 30-74t72-30z m-300 144q20 0 35-12t15-28q0-40-50-40t-50 40q0 16 15 28t35 12z m546 204q28-28-8-64-14-14-33-16t-29 10q-12 12-10 31t16 33q36 34 64 6z m54-204q20 0 35-12t15-28q0-40-50-40-48 0-48 40 0 16 14 28t34 12z m-300-290q16 0 28-15t12-35-12-35-28-15-28 15-12 35 12 35 28 15z m-238 62q36 36 64 8t-8-64q-14-14-33-16t-29 8q-30 28 6 64z m-10 430q28 28 64-8 14-14 16-33t-8-29q-30-28-64 6-36 36-8 64z m432-484q-34 36-6 64t64-8q14-14 16-33t-10-29q-30-28-64 6z m-184 492q-16 0-28 15t-12 35 12 35 28 15 28-15 12-35-12-35-28-15z" horiz-adv-x="700" />
<glyph glyph-name="light-up" unicode="&#xe8c4;" d="m950 390q20 0 35-12t15-28q0-40-50-40l-48 0q-50 0-50 40 0 16 15 28t35 12l48 0z m-450 234q114 0 195-80t81-194q0-116-81-196t-195-80-194 80-80 196q0 114 80 194t194 80z m0-474q82 0 141 58t59 142q0 82-59 141t-141 59-141-59-59-141q0-84 59-142t141-58z m-350 200q0-40-50-40l-50 0q-50 0-50 40 0 16 15 28t35 12l50 0q20 0 35-12t15-28z m350 350q-16 0-28 15t-12 35l0 50q0 20 12 35t28 15 28-15 12-35l0-50q0-20-12-35t-28-15z m0-700q16 0 28-15t12-35l0-50q0-20-12-35t-28-15-28 15-12 35l0 50q0 20 12 35t28 15z m368 660l-34-34q-34-34-64-8-28 28 8 64 4 6 34 36 36 34 64 6t-8-64z m-700-588q14 16 33 18t29-10q12-12 10-31t-16-33l-36-36q-14-14-33-16t-29 10q-30 28 6 64 6 4 36 34z m20 646l36-36q36-36 6-64-10-10-29-8t-33 16q-30 30-36 34-14 14-16 33t10 31q10 12 29 10t33-16z m590-702q-36 36-8 64t64-8l34-34q36-36 8-64t-64 6q-30 30-34 36z" horiz-adv-x="1000" />
<glyph glyph-name="lamp-1" unicode="&#xe8c5;" d="m298 685q-70 0-119-49t-49-119q0-84 66-133 81-62 97-144l8 0q16 83 97 144 66 49 66 133 0 70-48 119t-118 49z m0 112q115 0 197-82t81-198q0-136-110-222-57-43-57-96l0-72-223 0 0 72q0 52-58 96-110 86-110 222 0 117 82 198t198 82z m-112-894l0 113 223 0 0-113-223 0z" horiz-adv-x="594" />
<glyph glyph-name="lightbulb" unicode="&#xe8c6;" d="m1 309q-2 12 7 22t22 11l90 16q14 2 26-5t13-20-7-23-24-13l-88-13q-14-2-25 5t-14 20z m2 251q-6 13 0 24t19 16 26-4l82-35q14-6 19-18t0-23-18-16-26 0l-82 39q-14 4-20 17z m160 207q2 13 14 21 10 5 22 2t21-16l49-76q7-12 5-26t-11-19-23-3-20 15l-51 76q-8 13-6 26z m57-241q17 39 49 66t75 41 94 14l4 0q51 0 94-14t75-41 50-66q43-104-15-227-22-43-47-92-14-25-25-73t-16-61q-4-12-16-14l-203 0q-12 2-18 14-29 111-39 134-25 49-47 92-58 131-15 227z m99-623q0 8 5 12t13 5l209 0q6 0 11-5t5-12l0-35q0-8-5-13t-11-5l-209 0q-18 0-18 18l0 35z m0 68l0 35q0 18 18 18l209 0q6 0 11-5t5-13l0-35q0-8-5-13t-11-4l-209 0q-8 0-13 4t-5 13z m94 754l0 90q0 16 8 25t21 10q12 0 21-10t9-25l0-90q0-14-9-23t-21-10q-13 0-21 10t-8 23z m193-53q-1 14 6 26l49 76q10 12 22 16t23-2q10-8 12-21t-6-26l-49-76q-10-12-21-15t-23 3-13 19z m118-339q2 13 12 20t25 5l90-16q13-2 22-12t7-21q-2-14-13-21t-26-4l-90 13q-14 2-22 13t-5 23z m8 187q-4 12 1 23t18 18l84 35q12 8 24 4t19-16 0-24-20-17l-82-39q-13-4-26 0t-18 16z" horiz-adv-x="881" />
<glyph glyph-name="lightbulb-1" unicode="&#xe8c7;" d="m0 506q0 143 101 243t243 101 243-101 101-243q0-55-30-121t-71-141-56-115q-15-39-31-94t-24-82-27-53-42-39-63-11-64 11-41 39-26 53-25 82-32 94q-13 43-55 116t-72 140-29 121z m63 0q0-64 82-213 37-64 52-99l293 0q16 35 53 99 82 151 82 213 0 117-82 199t-199 82-199-82-82-199z m93 0q0 78 55 133t133 55q15 0 15-16t-15-16q-65 0-111-45t-45-111q0-15-16-15t-16 15z m67-375q11-33 19-60l213 27q2 12 10 33l-242 0z m29-90q10-35 18-60l154 19q6 16 12 38 2 5 4 15t3 12z m29-89q12-26 25-33t38-7q29 0 43 10t27 45z" horiz-adv-x="687" />
<glyph glyph-name="lightbulb-alt" unicode="&#xe8c8;" d="m0 350q0 207 147 354t353 146 354-146 146-354-146-354-354-146-353 146-147 354z m225-25q2-8 8-13t15-5l57 10q9 2 14 8t5 13q-2 8-10 14-3 2-11 2l-4 0-57-10q-8 0-13-6t-4-13z m1 171q-3-7 1-15t11-12l51-21q10-4 18-2t9 10q4 7 0 14t-11 11l-51 23q-4 2-10 2l-6 0q-9-4-12-10z m100 114q-2-8 4-16l31-47q4-7 13-10t15 3q6 3 7 11t-3 16l-32 49q-4 8-11 9l-6 0q-6 0-10-1-6-6-8-14z m45-291q16-33 29-59 10-21 14-37 2-8 5-23t7-26q2-6 10-8l128 0q6 2 10 8 4 10 7 29t5 20q4 16 14 37l29 59q37 82 10 142-12 24-32 40t-47 26-60 9l-2 0q-62 0-105-34-75-74-22-183z m53-272q0-9 10-9l132 0q10 0 10 9l0 24q0 9-10 9l-132 0q-10 0-10-9l0-24z m0 65q0-10 10-10l132 0q10 0 10 10l0 23q0 10-10 10l-132 0q-10 0-10-10l0-23z m58 472q0-7 5-14t14-7 14 7 5 14l0 57q0 10-5 16t-13 5l-2 0q-8 0-12-5-6-6-6-16l0-57z m123-33q0-8 6-12 6-5 15-3t13 11l31 47q10 18-4 29-4 2-10 2l-6 0q-7-2-11-9l-32-49q-3-8-2-16z m71-213q0-8 5-13t14-8l57-10q8 0 15 5t8 13-4 13-13 6l-57 10-6 0q-6 0-9-2-8-6-10-14z m8 117q2-7 9-9t18 2l51 21q8 4 11 12t1 14-12 11l-6 0q-6 0-10-2l-51-23q-7-4-11-11t0-15z" horiz-adv-x="1000" />
<glyph glyph-name="spin1" unicode="&#xe8c9;" d="m496 850c-176 0-331-90-421-226-18-27-33-55-46-85-12-29-21-60-28-92 0 0 0-1 0-1l0 0 0 0c0-1 0-2 0-2 0-7 5-12 11-12l101 0c5 0 10 4 11 9 29 113 109 206 214 253 20 10 41 17 63 23 31 7 62 11 95 11l0 0 0 0 0 0c25 0 50-2 74-7 5-1 10-2 14-3 6-1 10-3 14-4l0 0c5-1 11 1 13 6l51 87c0 0 1 1 1 2 2 6-1 13-7 15-22 7-43 13-65 17-5 1-9 1-13 2-27 5-54 7-82 7l0 0 0 0z m327-114c-5 0-9-2-11-6l-50-87c-3-4-2-10 2-14 29-29 54-63 73-101 4-7 7-14 11-22 19-46 30-97 30-151l0 0 0 0c0-77-22-149-62-209-7-11-15-23-24-34-9-10-18-20-28-30l0 0 0 0 0 0c-4-4-5-10-2-14l50-87c0-1 1-2 2-3 4-5 11-5 16-1 58 52 104 117 134 190 6 14 11 29 15 44 14 46 21 94 21 144 0 108-34 209-92 291-11 16-23 31-37 46-13 14-26 28-41 41l0 0c-1 1-1 1-2 1-2 1-4 2-5 2z m-811-468l0 0c-1 0-2 0-3 0-6-1-10-8-9-14 34-166 149-302 302-366 30-12 61-21 93-28 32-6 66-10 100-10l0 0 0 0c40 0 79 5 117 14 7 1 14 3 22 5 6 2 13 5 20 7 1 0 2 1 3 1 6 3 8 10 4 16l-50 87c-3 5-8 7-13 6-14-4-28-7-42-9-3-1-6-1-8-2-18-2-35-3-53-3l0 0 0 0c-128 0-242 63-311 160-1 0-1 0-1 0-13 19-25 40-35 61-10 21-18 43-24 65-1 6-6 10-11 10l-101 0z" horiz-adv-x="1000" />
<glyph glyph-name="spin2" unicode="&#xe8ca;" d="m46 144l0 0c0 0-1 0-1 0-8 18-15 37-21 55-6 19-11 38-15 58-19 99-8 203 35 298 3 6 10 8 15 5 1 0 2 0 2-1l0 0 80-59c5-3 6-9 4-14-5-12-9-25-12-38-4-12-7-26-9-39-11-67-3-137 23-201 2-5 0-10-4-13l0 0-80-56c-5-4-12-3-16 3-1 0-1 1-1 2l0 0z m120 574l0 0c0 1 0 1 0 1 15 13 30 25 46 37 16 11 33 22 51 31 89 50 192 72 297 60 6-1 10-6 10-13 0-1-1-1-1-2l0 0-31-94c-2-5-8-8-13-7-13 0-27 0-40 0-14-1-27-2-40-4-68-11-133-40-186-84-4-3-10-3-14 0l0 0-79 58c-5 3-6 11-2 16 0 0 1 1 2 1l0 0z m588 65l0 0c0 0 1 0 1 0 17-10 34-21 50-32 16-12 31-25 46-38 74-69 127-160 148-262 2-6-2-12-9-13-1 0-1 0-2 0l0 0-100 1c-5 0-10 4-11 9-3 13-8 26-12 38-5 12-10 25-17 36-31 61-78 113-137 150-5 3-6 8-5 13l0 0 31 92c2 6 9 9 15 7 1 0 2-1 2-1l0 0z m244-535l0 0c0 0 0 0 0 0-4-20-9-39-15-57-7-19-14-37-22-55-44-92-114-170-205-221-6-3-13-1-16 4 0 1-1 2-1 2l0 0-30 94c-2 6 1 12 6 14 11 7 22 15 32 23 11 9 21 18 30 27 49 48 84 109 101 176 2 5 6 8 11 8l0 0 98-1c6 0 11-5 11-11 0-1 0-2 0-3l0 0z m-438-395l0 0c0 0 0 0 0 0-20-2-40-3-60-3-20 0-40 1-59 4-102 12-198 54-276 125-5 4-5 11 0 16 0 0 1 1 1 1l0 0 81 58c5 3 12 2 16-2 10-8 20-16 32-23 11-7 22-14 34-20 62-31 131-45 200-41 6 0 10-3 12-8l0 0 29-92c2-6-1-12-7-14-1-1-2-1-3-1l0 0z" horiz-adv-x="1000" />
<glyph glyph-name="spin3" unicode="&#xe8cb;" d="m494 850c-266 0-483-210-494-472-1-19 13-20 13-20l84 0c16 0 19 10 19 18 10 199 176 358 378 358 107 0 205-45 273-118l-58-57c-11-12-11-27 5-31l247-50c21-5 46 11 37 44l-58 227c-2 9-16 22-29 13l-65-60c-89 91-214 148-352 148z m409-508c-16 0-19-10-19-18-10-199-176-358-377-358-108 0-205 45-274 118l59 57c10 12 10 27-5 31l-248 50c-21 5-46-11-37-44l58-227c2-9 16-22 30-13l64 60c89-91 214-148 353-148 265 0 482 210 493 473 1 18-13 19-13 19l-84 0z" horiz-adv-x="1000" />
<glyph glyph-name="spin4" unicode="&#xe8cc;" d="m498 850c-114 0-228-39-320-116l0 0c173 140 428 130 588-31 134-134 164-332 89-495-10-29-5-50 12-68 21-20 61-23 84 0 3 3 12 15 15 24 71 180 33 393-112 539-99 98-228 147-356 147z m-409-274c-14 0-29-5-39-16-3-3-13-15-15-24-71-180-34-393 112-539 185-185 479-195 676-31l0 0c-173-140-428-130-589 31-134 134-163 333-89 495 11 29 6 50-12 68-11 11-27 17-44 16z" horiz-adv-x="1001" />
<glyph glyph-name="spin5" unicode="&#xe8cd;" d="m462 850c-6 0-11-5-11-11l0-183 0 0c0-6 5-11 11-11l69 0c1 0 1 0 1 0 7 0 12 5 12 11l0 183 0 0c0 6-5 11-12 11l-69 0c0 0 0 0-1 0z m250-47c-4 1-8-2-10-5l-91-158 0 0c-4-6-2-13 4-16l60-35c0 0 0 0 0 0 6-3 13-1 16 4l91 158c3 6 2 13-4 16l-61 35c-1 1-3 1-5 1z m-428-2c-2 0-4-1-6-2l-61-35c-5-3-7-10-4-16l91-157c0 0 0 0 0 0 3-6 10-8 16-5l61 35c5 4 7 11 4 16l-91 157c0 1 0 1 0 1-2 4-6 6-10 6z m620-163c-2 0-4 0-6-1l-157-91c0 0 0 0 0 0-6-3-8-10-5-16l35-61c4-5 11-7 16-4l157 91c1 0 1 0 1 0 6 3 7 10 4 16l-35 61c-2 3-6 5-10 5z m-810-4c-5 0-9-2-11-6l-35-61c-3-5-1-12 4-15l158-92 0 0c6-3 13-1 16 5l35 60c0 0 0 0 0 0 3 6 1 13-4 16l-158 91c-2 1-4 2-5 2z m712-235l0 0c-6 0-11-5-11-11l0-69c0-1 0-1 0-1 0-7 5-12 11-12l183 0 0 0c6 0 11 5 11 12l0 69c0 0 0 0 0 1 0 6-5 11-11 11l-183 0z m-794-5l0 0c-7 0-12-5-12-12l0-69c0 0 0 0 0-1 0-6 5-11 12-11l182 0 0 0c6 0 11 5 11 11l0 69c0 1 0 1 0 1 0 7-5 12-11 12l-182 0z m772-153c-4 0-8-2-10-6l-34-60c-1 0-1 0-1 0-3-6-1-13 4-16l158-91c6-3 13-2 16 4l35 61c3 5 1 12-4 15l-158 91 0 0c-2 1-4 2-6 2z m-566-5c-1 0-3 0-5-1l-157-91c0 0-1 0-1 0-5-3-7-11-4-16l35-61c3-5 10-7 16-4l157 91c0 0 0 0 0 0 6 3 8 10 5 16l-35 61c-3 3-7 5-11 5z m468-121c-2 0-4 0-6-1l-61-35c-5-4-7-11-4-16l91-157c0-1 0-1 0-1 3-6 11-7 16-4l61 35c5 3 7 10 4 16l-91 157c0 0 0 0 0 0-2 4-6 6-10 6z m-367-3c-4 1-8-2-10-5l-91-158c-3-6-1-13 4-16l61-35c5-3 12-1 15 4l92 158 0 0c3 6 1 13-5 16l-60 34c0 1 0 1 0 1-2 1-4 1-6 1z m149-57c-7 0-12-5-12-11l0-183 0 0c0-6 5-11 12-11l69 0c0 0 0 0 1 0 6 0 11 5 11 11l0 183 0 0c0 6-5 11-11 11l-69 0c-1 0-1 0-1 0z" horiz-adv-x="1000" />
<glyph glyph-name="spin6" unicode="&#xe8ce;" d="m855 9c-189-190-520-172-705 13-190 190-200 494-28 695 11 13 21 26 35 34 36 23 85 18 117-13 30-31 35-76 16-112-5-9-9-15-16-22-140-151-145-379-8-516 153-153 407-121 542 34 106 122 142 297 77 451-83 198-305 291-510 222l0 1c236 82 492-24 588-252 71-167 37-355-72-493-11-15-23-29-36-42z" horiz-adv-x="1000" />
<glyph glyph-name="star" unicode="&#xe8cf;" d="m929 489q0-12-15-27l-203-197 48-279q1-4 1-12 0-11-6-19t-17-9q-10 0-22 7l-251 132-250-132q-13-7-23-7-11 0-17 9t-6 19q0 4 1 12l48 279-203 197q-14 15-14 27 0 21 31 26l280 40 126 254q11 23 27 23t28-23l125-254 280-40q32-5 32-26z" horiz-adv-x="928.6" />
<glyph glyph-name="star-empty" unicode="&#xe8d0;" d="m634 290l171 165-235 35-106 213-105-213-236-35 171-165-41-235 211 111 211-111z m295 199q0-12-15-27l-203-197 48-279q1-4 1-12 0-28-23-28-10 0-22 7l-251 132-250-132q-13-7-23-7-11 0-17 9t-6 19q0 4 1 12l48 279-203 197q-14 15-14 27 0 21 31 26l280 40 126 254q11 23 27 23t28-23l125-254 280-40q32-5 32-26z" horiz-adv-x="928.6" />
<glyph glyph-name="star-filled" unicode="&#xe8d1;" d="m297 498q69 152 114 252 6 15 24 15t23-15l114-252q164-18 274-30 15-3 21-18t-6-27l-204-187q33-161 55-270 3-15-10-25t-27-2l-240 136q-144-81-240-136-15-9-28 2t-11 25l56 270q-122 112-204 187-12 11-6 26t21 19z" horiz-adv-x="869" />
<glyph glyph-name="star-1" unicode="&#xe8d2;" d="m741-118q-19 0-39 12l-213 121-215-121q-44-24-84 3-41 29-31 79l50 243q-10 9-39 35t-45 40l-99 90q-37 35-21 82t66 54l244 26 102 225q22 47 72 47 47 0 71-47l101-225 245-27q48-4 65-52t-21-83l-183-166 50-242q7-35-16-64t-60-29z m-425 343q-1-4-7-36t-17-84-20-92l190 107q27 14 52 0l190-107-44 213q-6 29 16 49l161 148-217 23q-30 4-41 30l-90 199-90-199q-13-26-43-30l-216-23 161-148q21-19 15-50z" horiz-adv-x="976" />
<glyph glyph-name="star-empty-1" unicode="&#xe8d3;" d="m880 454l-262-196 94-348-272 208-272-208 94 348-262 196 320 0 120 336 120-336 320 0z m-440-238l150-124-62 178 144 114-176-4-56 202-54-202-176 4 142-114-62-178z" horiz-adv-x="880" />
<glyph glyph-name="star-2" unicode="&#xe8d4;" d="m440 790l120-336 320 0-262-196 94-348-272 208-272-208 94 348-262 196 320 0z" horiz-adv-x="880" />
<glyph glyph-name="cancel" unicode="&#xe8d5;" d="m724 112q0-22-15-38l-76-76q-16-15-38-15t-38 15l-164 165-164-165q-16-15-38-15t-38 15l-76 76q-16 16-16 38t16 38l164 164-164 164q-16 16-16 38t16 38l76 76q16 16 38 16t38-16l164-164 164 164q16 16 38 16t38-16l76-76q15-15 15-38t-15-38l-164-164 164-164q15-15 15-38z" horiz-adv-x="785.7" />
<glyph glyph-name="cancel-circled" unicode="&#xe8d6;" d="m641 224q0 14-10 25l-101 101 101 101q10 11 10 25 0 15-10 26l-51 50q-10 11-25 11-15 0-25-11l-101-101-101 101q-11 11-26 11-15 0-25-11l-50-50q-11-11-11-26 0-14 11-25l101-101-101-101q-11-11-11-25 0-15 11-26l50-50q10-11 25-11 15 0 26 11l101 101 101-101q10-11 25-11 15 0 25 11l51 50q10 11 10 26z m216 126q0-117-57-215t-156-156-215-58-216 58-155 156-58 215 58 215 155 156 216 58 215-58 156-156 57-215z" horiz-adv-x="857.1" />
<glyph glyph-name="cancel-1" unicode="&#xe8d7;" d="m452 194q18-18 18-43t-18-43q-18-16-43-16t-43 16l-132 152-132-152q-18-16-43-16t-43 16q-16 18-16 43t16 43l138 156-138 158q-16 18-16 43t16 43q18 16 43 16t43-16l132-152 132 152q18 16 43 16t43-16q18-18 18-43t-18-43l-138-158z" horiz-adv-x="470" />
<glyph glyph-name="cancel-circled-1" unicode="&#xe8d8;" d="m420 770q174 0 297-123t123-297-123-297-297-123-297 123-123 297 123 297 297 123z m86-420l154 154-86 86-154-152-152 152-88-86 154-154-154-152 88-86 152 152 154-152 86 86z" horiz-adv-x="840" />
<glyph glyph-name="cancel-squared" unicode="&#xe8d9;" d="m700 750q42 0 71-29t29-71l0-600q0-40-29-70t-71-30l-600 0q-40 0-70 30t-30 70l0 600q0 42 30 71t70 29l600 0z m-146-638l86 86-154 152 154 154-86 86-154-152-152 152-88-86 154-154-154-152 88-86 152 152z" horiz-adv-x="800" />
<glyph glyph-name="cancel-alt" unicode="&#xe8da;" d="m936-67l-521 0q-56 0-116 30t-91 77l-137 191q-13 19-29 41t-24 33-8 12q-10 14-10 33t9 32q5 5 64 88l135 190q32 46 91 76t116 31l521 0q65 0 111-46t46-110l0-522q0-65-46-110t-111-46z m-821 417q6-9 21-30t20-28l137-191q17-25 55-45t67-19l521 0q22 0 37 16t15 37l0 521q0 21-15 36t-37 15l-521 0q-30 0-67-19t-55-43l-135-190q-8-10-22-32t-21-28z m545 0l139-138q12-12 5-29t-24-16q-10 0-19 9l-137 137-138-137q-8-9-18-9-17 0-24 16t5 29l137 138-137 138q-11 12-6 25t18 18 25-6l138-138 137 138q18 17 36-1t1-36z" horiz-adv-x="1093" />
<glyph glyph-name="cancel-alt-filled" unicode="&#xe8db;" d="m911 741q54 0 92-39t38-91l0-522q0-53-38-92t-92-38l-521 0q-50 0-103 28t-82 67l-137 192q-59 83-62 86-12 17 0 35l8 11q9 13 24 34t31 42l135 190q29 40 82 68t104 29l521 0z m-120-510l-118 118 118 120q15 15 15 37t-15 37-37 15-36-15l-119-120-120 120q-15 15-37 15t-37-15-15-37 15-37l120-120-120-118q-15-15-15-37t15-37q16-16 38-16 20 0 36 16l120 119 119-119q16-16 37-16 20 0 36 16 15 15 15 37t-15 37z" horiz-adv-x="1041" />
<glyph glyph-name="cancel-circled-outline" unicode="&#xe8dc;" d="m469 819q194 0 331-137t138-332-138-331-331-138-331 138-138 331 138 332 331 137z m0-834q151 0 258 107t107 258-107 258-258 107-258-107-107-258 107-258 258-107z m36 365l139-137q12-13 5-29t-24-16q-11 0-19 7l-137 139-138-139q-7-7-18-7-17 0-24 16t5 29l139 137-139 138q-18 17 1 36t36 1l138-138 137 138q18 18 37-1t1-36z" horiz-adv-x="938" />
<glyph glyph-name="cancel-circled-2" unicode="&#xe8dd;" d="m416 767q173 0 295-122t123-295-123-294-295-122-294 122-122 294 122 295 294 122z m194-537l-120 120 120 120q15 15 15 37t-15 36-37 15-37-15l-120-119-118 119q-15 15-37 15t-37-15-15-36 15-37l119-120-119-120q-15-15-15-36t15-36q16-16 36-16 21 0 38 16l118 119 120-119q17-16 37-16 21 0 37 16 15 15 15 36t-15 36z" horiz-adv-x="834" />
<glyph glyph-name="cancel-2" unicode="&#xe8de;" d="m799 116l-156-157-234 235-235-235-156 157 234 234-234 234 156 157 235-235 234 235 156-157-234-234z" horiz-adv-x="817" />
<glyph glyph-name="cancel-circle" unicode="&#xe8df;" d="m465 797q184 0 315-131t131-316-131-315-315-132-316 132-131 315 131 316 316 131z m220-588l-141 142 141 141-79 79-142-141-141 141-79-79 141-141-141-142 79-79 141 141 142-141z" horiz-adv-x="928" />
<glyph glyph-name="cancel-3" unicode="&#xe8e0;" d="m123 654l181-181 181 181 123-124-182-178 183-184-124-121-181 182-181-182-123 122 183 183-182 178z" horiz-adv-x="609" />
<glyph glyph-name="cancel-circle-1" unicode="&#xe8e1;" d="m406 755c227 0 405-180 405-404 0-226-178-406-405-406-225 0-406 180-406 406 0 224 181 404 406 404z m84-404l125 125-85 84-124-125-126 126-84-85 127-125-127-125 84-85 126 127 124-125 85 83z" horiz-adv-x="811" />
<glyph glyph-name="cancel-4" unicode="&#xe8e2;" d="m0 90q0 36 26 62l195 195-195 196q-26 25-26 61t26 61 61 25 61-25l196-196 195 196q25 25 61 25t61-25 25-61-25-61l-195-196 195-195q25-26 25-62t-25-61q-25-25-61-25t-61 25l-195 195-196-195q-25-25-61-25t-61 25q-26 26-26 61z" horiz-adv-x="686.5" />
<glyph glyph-name="cancel-circled-3" unicode="&#xe8e3;" d="m0 350q0 95 37 182t100 149 150 100 182 37 182-37 149-100 100-149 37-182-37-182-100-150-149-100-182-37-182 37-150 100-100 150-37 182z m261-155q0-22 15-38 15-15 37-15 22 0 37 15l119 119 118-119q15-15 37-15 22 0 37 15 15 16 15 38t-15 37l-118 118 118 119q15 15 15 37t-15 37-37 15-37-15l-118-119-119 119q-15 15-37 15t-37-15q-15-15-15-37t15-37l118-119-118-118q-15-15-15-37z" horiz-adv-x="937.5" />
<glyph glyph-name="cancel-5" unicode="&#xe8e4;" d="m0 71l279 279-279 279 221 221 279-279 279 279 221-221-279-279 279-279-221-221-279 279-279-279z" horiz-adv-x="1000" />
<glyph glyph-name="cancel-circled-4" unicode="&#xe8e5;" d="m0 350q0 207 147 354t353 146 354-146 146-354-146-354-354-146-353 146-147 354z m219-156l125-125 156 156 156-156 125 125-156 156 156 156-125 125-156-156-156 156-125-125 156-156z" horiz-adv-x="1000" />
<glyph glyph-name="cancel-circled2" unicode="&#xe8e6;" d="m0 350q0 207 147 354t353 146 354-146 146-354-146-354-354-146-353 146-147 354z m109 0q0-162 115-276t276-115 276 115 115 276-115 276-276 115-276-115-115-276z m145-137l137 137-137 137 109 109 137-137 137 137 109-109-137-137 137-137-109-109-137 137-137-137z" horiz-adv-x="1000" />
<glyph glyph-name="cancel-6" unicode="&#xe8e7;" d="m654 349l346-346-154-154-346 346-346-346-154 154 346 346-346 346 154 154 346-346 346 346 154-154z" horiz-adv-x="1000" />
<glyph glyph-name="cancel-circle-2" unicode="&#xe8e8;" d="m1000 349q0-136-67-251t-182-182-251-67-251 67-182 182-67 251 67 251 182 182 251 67 251-67 182-182 67-251z m-339-232l71 71-161 161 161 161-71 71-161-161-161 161-71-71 161-161-161-161 71-71 161 161z" horiz-adv-x="1000" />
<glyph glyph-name="ok" unicode="&#xe8e9;" d="m932 534q0-22-15-38l-404-404-76-76q-16-15-38-15t-38 15l-76 76-202 202q-15 16-15 38t15 38l76 76q16 16 38 16t38-16l164-165 366 367q16 16 38 16t38-16l76-76q15-16 15-38z" horiz-adv-x="1000" />
<glyph glyph-name="ok-circled" unicode="&#xe8ea;" d="m717 440q0 16-11 26l-50 50q-11 11-25 11t-26-11l-227-227-126 126q-11 11-25 11t-26-11l-50-50q-10-10-10-26 0-15 10-25l202-202q10-10 25-10 15 0 25 10l303 303q11 10 11 25z m140-90q0-117-57-215t-156-156-215-58-216 58-155 156-58 215 58 215 155 156 216 58 215-58 156-156 57-215z" horiz-adv-x="857.1" />
<glyph glyph-name="ok-circled2" unicode="&#xe8eb;" d="m653 396l-235-235q-11-11-25-11t-25 11l-164 164q-11 11-11 25t11 25l57 57q10 11 25 11t25-11l82-82 153 153q11 11 25 11t26-11l56-56q11-11 11-26t-11-25z m79-46q0 83-41 152t-110 111-152 41-153-41-110-111-41-152 41-152 110-111 153-41 152 41 110 111 41 152z m125 0q0-117-57-215t-156-156-215-58-216 58-155 156-58 215 58 215 155 156 216 58 215-58 156-156 57-215z" horiz-adv-x="857.1" />
<glyph glyph-name="ok-squared" unicode="&#xe8ec;" d="m382 125l343 343q10 10 10 25t-10 25l-57 57q-11 10-25 10t-25-10l-261-261-118 118q-10 11-25 11t-25-11l-57-57q-10-11-10-25t10-25l200-200q11-11 25-11t25 11z m475 493v-536q0-66-47-113t-114-48h-535q-67 0-114 48t-47 113v536q0 66 47 113t114 48h535q67 0 114-48t47-113z" horiz-adv-x="857.1" />
<glyph glyph-name="book" unicode="&#xe8ed;" d="m915 583q22-32 10-72l-154-505q-10-36-42-60t-69-25h-515q-43 0-83 30t-55 74q-14 37-1 71 0 2 1 15t3 20q0 5-2 12t-2 11q1 6 5 12t9 13 9 13q13 21 25 51t17 51q2 6 0 17t0 16q2 6 9 15t10 13q12 20 23 51t14 51q1 5-1 17t0 16q2 7 12 17t13 13q10 14 23 47t16 54q0 4-2 14t-1 15q1 4 5 10t10 13 10 11q4 7 9 17t8 20 9 20 11 18 15 13 20 6 26-3l0-1q21 5 28 5h425q41 0 63-32t10-72l-152-506q-20-66-40-85t-72-20h-485q-15 0-21-8-6-9-1-24 14-39 81-39h515q16 0 31 9t19 23l168 550q4 13 3 32 21-8 33-24z m-594-1q-2-7 1-12t11-6h339q8 0 15 6t9 12l12 36q2 7-2 12t-11 6h-339q-7 0-14-6t-9-12z m-46-143q-3-7 1-12t11-6h339q7 0 14 6t10 12l11 36q3 7-1 13t-11 5h-339q-8 0-14-5t-10-13z" horiz-adv-x="928.6" />
<glyph glyph-name="laptop" unicode="&#xe8ee;" d="m232 136q-37 0-63 26t-26 63v393q0 37 26 63t63 26h607q37 0 63-26t27-63v-393q0-37-27-63t-63-26h-607z m-18 482v-393q0-7 6-13t12-5h607q8 0 13 5t5 13v393q0 7-5 12t-13 6h-607q-7 0-12-6t-6-12z m768-518h89v-54q0-22-26-37t-63-16h-893q-36 0-63 16t-26 37v54h982z m-402-54q9 0 9 9t-9 9h-89q-9 0-9-9t9-9h89z" horiz-adv-x="1071.4" />
<glyph glyph-name="check" unicode="&#xe8ef;" d="m249 0q-34 0-56 28l-180 236q-16 24-12 52t26 46 51 14 47-28l118-154 296 474q16 24 43 30t53-8q24-16 30-43t-8-53l-350-560q-20-32-56-32z" horiz-adv-x="667" />
<glyph glyph-name="book-1" unicode="&#xe8f0;" d="m682 594q18-8 18-28l0-562q0-14-12-25t-28-11q-46 0-46 36l0 522q0 12-12 18l-404 216q-32 10-68-10-44-20-56-44l408-228q18-8 18-28l0-550q0-22-18-28-6-4-16-4-14 0-20 4-8 6-202 127t-212 131q-26 18-26 34l-6 524q0 28 14 52 28 46 102 77t116 9z" horiz-adv-x="700" />
<glyph glyph-name="ok-1" unicode="&#xe8f1;" d="m352-10l-334 333 158 160 176-174 400 401 159-160z" horiz-adv-x="928" />
<glyph glyph-name="ok-circle" unicode="&#xe8f2;" d="m465 797q184 0 315-131t131-316-131-315-315-132-316 132-131 315 131 316 316 131z m-70-653l348 348-79 79-269-268-126 126-79-78z" horiz-adv-x="928" />
<glyph glyph-name="ok-2" unicode="&#xe8f3;" d="m875 588l-535-600-340 338 123 124 196-195 420 457z" horiz-adv-x="875" />
<glyph glyph-name="book-2" unicode="&#xe8f4;" d="m600 630l35 0 0-672-502 0c-74 0-133 52-133 128l0 581c0 41 34 75 75 75l465 0 0-576-407 0c-52 0-88-28-88-78l0-2c0-50 36-83 88-83l467 0 0 627z m-60-562l-402 0c-12 0-22 7-22 19 0 10 10 16 22 16l402 0 0-35z" horiz-adv-x="635" />
<glyph glyph-name="ok-3" unicode="&#xe8f5;" d="m0 339q0-35 24-60l246-239q24-25 60-25 36 0 60 25l505 495q25 24 25 59t-25 58q-25 25-60 25t-60-25l-445-435-185 181q-25 24-60 24t-61-24q-24-24-24-59z" horiz-adv-x="920.4" />
<glyph glyph-name="ok-circled-1" unicode="&#xe8f6;" d="m0 350q0 95 37 182t100 149 150 100 182 37 182-37 149-100 100-149 37-182-37-182-100-150-149-100-182-37-182 37-150 100-100 150-37 182z m177-31q0-22 15-38l153-153q14-15 38-15 22 0 37 15l315 315q16 16 16 38t-16 37-38 15-37-15l-277-278-116 116q-15 15-37 15t-38-15q-15-16-15-37z" horiz-adv-x="937.5" />
<glyph glyph-name="ok-4" unicode="&#xe8f7;" d="m0 260l162 162 166-164 508 510 164-164-510-510-162-162-162 164z" horiz-adv-x="1000" />
<glyph glyph-name="ok-circled-2" unicode="&#xe8f8;" d="m0 350q0 207 147 354t353 146 354-146 146-354-146-354-354-146-353 146-147 354z m182-57l105-105 104-104 103 104 324 324-103 104-324-325-106 106z" horiz-adv-x="1000" />
<glyph glyph-name="ok-circled2-1" unicode="&#xe8f9;" d="m0 350q0 207 147 354t353 146 354-146 146-354-146-354-354-146-353 146-147 354z m109 0q0-162 115-276t276-115 276 115 115 276-115 276-276 115-276-115-115-276z m106-51l94 92 93-94 289 291 94-93-291-290-92-93-93 93z" horiz-adv-x="1000" />
<glyph glyph-name="ok-5" unicode="&#xe8fa;" d="m1179 778q-250-222-600-750l-115-179q-144 180-464 500l107 107 286-250q150 150 279 272t206 187 131 111 77 59l21 14q4 0 11-2t26-19 35-50z" horiz-adv-x="1179" />
<glyph glyph-name="ok-circle-1" unicode="&#xe8fb;" d="m500 850q136 0 251-67t182-182 67-251-67-251-182-182-251-67-251 67-182 182-67 251 67 251 182 182 251 67z m-240-447l-54-53q71-71 129-133t81-90l22-26q8 13 22 36t57 85 83 119 95 119 99 104q-18 35-36 35-10-6-32-22t-113-97-211-201z" horiz-adv-x="1000" />
<glyph glyph-name="book-3" unicode="&#xe8fc;" d="m0 147l0 543q0 31 14 53 29 45 102 77t116 9l471-242 0-590-86-47 0 590-420 224q-29 10-65-9t-58-47l469-270 0-529-86-47z" horiz-adv-x="703" />
<glyph glyph-name="plus" unicode="&#xe8fd;" d="m786 439v-107q0-22-16-38t-38-15h-232v-233q0-22-16-37t-38-16h-107q-22 0-38 16t-15 37v233h-232q-23 0-38 15t-16 38v107q0 23 16 38t38 16h232v232q0 22 15 38t38 16h107q23 0 38-16t16-38v-232h232q22 0 38-16t16-38z" horiz-adv-x="785.7" />
<glyph glyph-name="plus-circled" unicode="&#xe8fe;" d="m679 314v72q0 14-11 25t-25 10h-143v143q0 15-11 25t-25 11h-71q-15 0-25-11t-11-25v-143h-143q-14 0-25-10t-10-25v-72q0-14 10-25t25-11h143v-142q0-15 11-25t25-11h71q15 0 25 11t11 25v142h143q14 0 25 11t11 25z m178 36q0-117-57-215t-156-156-215-58-216 58-155 156-58 215 58 215 155 156 216 58 215-58 156-156 57-215z" horiz-adv-x="857.1" />
<glyph glyph-name="plus-squared" unicode="&#xe8ff;" d="m714 314v72q0 14-10 25t-25 10h-179v179q0 15-11 25t-25 11h-71q-15 0-25-11t-11-25v-179h-178q-15 0-26-10t-10-25v-72q0-14 10-25t26-10h178v-179q0-14 11-25t25-11h71q15 0 25 11t11 25v179h179q14 0 25 10t10 25z m143 304v-536q0-66-47-113t-114-48h-535q-67 0-114 48t-47 113v536q0 66 47 113t114 48h535q67 0 114-48t47-113z" horiz-adv-x="857.1" />
<glyph glyph-name="plus-squared-alt" unicode="&#xe900;" d="m643 404v-36q0-8-5-13t-13-5h-196v-196q0-8-5-13t-13-5h-36q-8 0-13 5t-5 13v196h-196q-8 0-13 5t-5 13v36q0 7 5 12t13 5h196v197q0 8 5 13t13 5h36q8 0 13-5t5-13v-197h196q8 0 13-5t5-13z m71-250v464q0 37-26 63t-63 26h-464q-37 0-63-26t-27-63v-464q0-37 27-64t63-26h464q37 0 63 26t26 64z m72 464v-464q0-67-47-114t-114-47h-464q-67 0-114 47t-47 114v464q0 66 47 113t114 48h464q66 0 114-48t47-113z" horiz-adv-x="785.7" />
<glyph glyph-name="plus-1" unicode="&#xe901;" d="m550 400q30 0 30-50t-30-50l-210 0 0-210q0-30-50-30t-50 30l0 210-210 0q-30 0-30 50t30 50l210 0 0 210q0 30 50 30t50-30l0-210 210 0z" horiz-adv-x="580" />
<glyph glyph-name="plus-circled-1" unicode="&#xe902;" d="m420 770q174 0 297-123t123-297-123-297-297-123-297 123-123 297 123 297 297 123z m52-470l200 0 0 102-200 0 0 202-102 0 0-202-202 0 0-102 202 0 0-202 102 0 0 202z" horiz-adv-x="840" />
<glyph glyph-name="plus-squared-1" unicode="&#xe903;" d="m700 750q42 0 71-29t29-71l0-600q0-40-29-70t-71-30l-600 0q-40 0-70 30t-30 70l0 600q0 42 30 71t70 29l600 0z m-50-450l0 100-200 0 0 200-100 0 0-200-200 0 0-100 200 0 0-200 100 0 0 200 200 0z" horiz-adv-x="800" />
<glyph glyph-name="plus-outline" unicode="&#xe904;" d="m469-119q-65 0-111 46t-45 111l2 159-157-3q-65 0-112 46t-46 110 46 111 110 46l159 2-2 153q0 65 45 111t111 46 110-46 46-110l3-154 155-3q63 0 109-45t46-111-46-110-111-46l-153 2-3-160q0-63-46-109t-110-46z m-53 417l0-261q0-22 16-37t37-15 37 16 15 37l0 260 262 0q21 0 36 15t15 37-16 37-37 16l-260 0 0 260q0 22-15 37t-37 15-37-15-16-37l0-260-260 0q-22 0-37-16t-15-37 15-37 37-15l260 0z" horiz-adv-x="938" />
<glyph glyph-name="plus-2" unicode="&#xe905;" d="m729 454q44 0 74-31t31-73-31-73-74-30l-208 3 0-212q0-43-30-73t-75-31-73 31-30 73l3 212-212-3q-44 0-74 30t-30 73 30 73 74 31l212 0-3 209q0 42 30 73t73 31 75-31 30-73l0-209 208 0z" horiz-adv-x="834" />
<glyph glyph-name="plus-3" unicode="&#xe906;" d="m911 462l0-223-335 0 0-336-223 0 0 336-335 0 0 223 335 0 0 335 223 0 0-335 335 0z" horiz-adv-x="928" />
<glyph glyph-name="plus-circle" unicode="&#xe907;" d="m465 797q184 0 315-131t131-316-131-315-315-132-316 132-131 315 131 316 316 131z m223-502l0 112-167 0 0 167-112 0 0-167-168 0 0-112 168 0 0-168 112 0 0 168 167 0z" horiz-adv-x="928" />
<glyph glyph-name="plus-4" unicode="&#xe908;" d="m408 443l228 0 0-173-228 0 0-231-179 0 0 231-229 0 0 173 229 0 0 219 179 0 0-219z" horiz-adv-x="636" />
<glyph glyph-name="plus-5" unicode="&#xe909;" d="m0 291v119q0 20 14 35t35 14h281v281q0 20 15 35t35 14h119q20 0 34-14t15-35v-281h281q20 0 35-14t14-35v-119q0-21-14-35t-35-15h-281v-282q0-20-15-34t-34-15h-119q-21 0-35 15t-15 34v282h-281q-20 0-35 15t-14 35z" horiz-adv-x="878.9" />
<glyph glyph-name="plus-6" unicode="&#xe90a;" d="m0 209l0 282 359 0 0 359 282 0 0-359 359 0 0-282-359 0 0-359-282 0 0 359-359 0z" horiz-adv-x="1000" />
<glyph glyph-name="plus-circled-2" unicode="&#xe90b;" d="m0 350q0 207 147 354t353 146 354-146 146-354-146-354-354-146-353 146-147 354z m219-80l201 0 0-201 160 0 0 201 201 0 0 160-201 0 0 201-160 0 0-201-201 0 0-160z" horiz-adv-x="1000" />
<glyph glyph-name="plus-circle-1" unicode="&#xe90c;" d="m1000 349q0-136-67-251t-182-182-251-67-251 67-182 182-67 251 67 251 182 182 251 67 251-67 182-182 67-251z m-440-58h235v118h-235v235h-118v-235h-236v-118h236v-236h118v236z" horiz-adv-x="1000" />
<glyph glyph-name="minus" unicode="&#xe90d;" d="m786 439v-107q0-22-16-38t-38-15h-678q-23 0-38 15t-16 38v107q0 23 16 38t38 16h678q22 0 38-16t16-38z" horiz-adv-x="785.7" />
<glyph glyph-name="minus-circled" unicode="&#xe90e;" d="m679 314v72q0 14-11 25t-25 10h-429q-14 0-25-10t-10-25v-72q0-14 10-25t25-10h429q14 0 25 10t11 25z m178 36q0-117-57-215t-156-156-215-58-216 58-155 156-58 215 58 215 155 156 216 58 215-58 156-156 57-215z" horiz-adv-x="857.1" />
<glyph glyph-name="minus-squared" unicode="&#xe90f;" d="m714 314v72q0 14-10 25t-25 10h-500q-15 0-26-10t-10-25v-72q0-14 10-25t26-10h500q14 0 25 10t10 25z m143 304v-536q0-66-47-113t-114-48h-535q-67 0-114 48t-47 113v536q0 66 47 113t114 48h535q67 0 114-48t47-113z" horiz-adv-x="857.1" />
<glyph glyph-name="minus-squared-alt" unicode="&#xe910;" d="m643 404v-36q0-8-5-13t-13-5h-464q-8 0-13 5t-5 13v36q0 7 5 12t13 5h464q8 0 13-5t5-12z m71-250v464q0 37-26 63t-63 26h-464q-37 0-63-26t-27-63v-464q0-37 27-64t63-26h464q37 0 63 26t26 64z m72 464v-464q0-67-47-114t-114-47h-464q-67 0-114 47t-47 114v464q0 66 47 113t114 48h464q66 0 114-48t47-113z" horiz-adv-x="785.7" />
<glyph glyph-name="minus-1" unicode="&#xe911;" d="m550 400q30 0 30-50t-30-50l-520 0q-30 0-30 50t30 50l520 0z" horiz-adv-x="580" />
<glyph glyph-name="minus-circled-1" unicode="&#xe912;" d="m420 770q174 0 297-123t123-297-123-297-297-123-297 123-123 297 123 297 297 123z m252-368l-504 0 0-102 504 0 0 102z" horiz-adv-x="840" />
<glyph glyph-name="minus-squared-1" unicode="&#xe913;" d="m700 750q42 0 71-29t29-71l0-600q0-40-29-70t-71-30l-600 0q-40 0-70 30t-30 70l0 600q0 42 30 71t70 29l600 0z m-50-450l0 100-500 0 0-100 500 0z" horiz-adv-x="800" />
<glyph glyph-name="minus-2" unicode="&#xe914;" d="m18 239l0 223 893 0 0-223-893 0z" horiz-adv-x="928" />
<glyph glyph-name="minus-circle" unicode="&#xe915;" d="m465 797q184 0 315-131t131-316-131-315-315-132-316 132-131 315 131 316 316 131z m223-502l0 112-447 0 0-112 447 0z" horiz-adv-x="928" />
<glyph glyph-name="minus-3" unicode="&#xe916;" d="m0 209l0 282 1000 0 0-282-1000 0z" horiz-adv-x="1000" />
<glyph glyph-name="minus-circled-2" unicode="&#xe917;" d="m0 350q0 207 147 354t353 146 354-146 146-354-146-354-354-146-353 146-147 354z m213-82l574 0 0 164-574 0 0-164z" horiz-adv-x="1000" />
<glyph glyph-name="minus-circle-1" unicode="&#xe918;" d="m1000 349q0-136-67-251t-182-182-251-67-251 67-182 182-67 251 67 251 182 182 251 67 251-67 182-182 67-251z m-794-58h589v118h-589v-118z" horiz-adv-x="1000" />
<glyph glyph-name="camera-outline" unicode="&#xe919;" d="m885-66l-729 0q-65 0-110 46t-46 110l0 417q0 65 46 110t110 46l83 0 52 52q23 23 58 37t67 15l209 0q33 0 68-15t58-37l52-52 82 0q65 0 111-46t45-110l0-417q0-65-45-110t-111-46z m-729 625q-21 0-37-16t-15-36l0-417q0-21 15-37t37-15l729 0q21 0 37 15t16 37l0 417q0 21-16 36t-37 16l-104 0q-21 0-36 15l-67 68q-22 21-53 21l-209 0q-30 0-51-21l-67-68q-15-15-38-15l-104 0z m365-105q-53 0-92-38t-39-92 39-92 92-38 92 38 38 92-38 92-92 38z m0 53q77 0 129-54t53-129q0-75-54-129t-128-53q-76 0-129 53t-53 129q0 76 53 129t129 54z m313 16q27 0 47-20t20-49-19-48-48-19-49 20-20 47q0 29 20 49t49 20z" horiz-adv-x="1041" />
<glyph glyph-name="camera" unicode="&#xe91a;" d="m885 663q65 0 111-46t45-110l0-417q0-65-45-110t-111-46l-729 0q-65 0-110 46t-46 110l0 417q0 65 46 110t110 46l83 0 52 52q23 23 58 37t67 15l209 0q33 0 68-15t58-37l52-52 82 0z m-364-521q75 0 128 53t54 129q0 76-53 129t-129 54-129-54-53-129q0-75 53-129t129-53z m313 245q29 0 48 19t19 48-20 49-47 20q-29 0-49-20t-20-49q0-27 20-47t49-20z" horiz-adv-x="1041" />
</font>
</defs>
</svg>
